<svg width="74" height="74" viewBox="0 0 74 74" fill="none" xmlns="http://www.w3.org/2000/svg">
<mask id="mask0_103_56" style="mask-type:alpha" maskUnits="userSpaceOnUse" x="0" y="0" width="74" height="74">
<path d="M56.407 0.5H16.8545C15.2516 0.5 13.9521 1.79891 13.9521 3.40119V5.04187C13.9521 6.64415 15.2516 7.94306 16.8545 7.94306H56.407C58.01 7.94306 59.3094 6.64415 59.3094 5.04187V3.40119C59.3094 1.79891 58.01 0.5 56.407 0.5Z" fill="#1D1D1B"/>
<path d="M60.3604 16.7566C59.7098 16.2064 59.3095 15.4061 59.3095 14.5557V11.6945C59.3095 10.5941 58.4088 9.69373 57.3079 9.69373H15.9539C14.853 9.69373 13.9522 10.5941 13.9522 11.6945V14.6558C13.9522 15.5061 13.5619 16.2964 12.9114 16.8467C5.12497 23.4794 0.190918 33.2934 0.190918 44.2579C0.190918 55.2224 5.37518 65.5367 13.5019 72.1594C14.5727 73.0298 15.9238 73.5 17.305 73.5H56.0768C57.458 73.5 58.8091 73.0298 59.88 72.1594C68.0067 65.5267 73.1909 55.4926 73.1909 44.2579C73.1909 33.0233 68.2068 23.3794 60.3504 16.7466L60.3604 16.7566ZM55.5564 66.4571C54.6857 67.1673 53.5848 67.5475 52.4639 67.5475H20.928C19.797 67.5475 18.7061 67.1673 17.8354 66.4571C11.23 61.0648 7.00652 52.9015 7.00652 43.7677C7.00652 34.634 11.0198 26.8708 17.355 21.4786C17.8855 21.0284 18.1957 20.3881 18.1957 19.6978V17.2868C18.1957 16.3865 18.9263 15.6562 19.8271 15.6562H53.4547C54.3554 15.6562 55.086 16.3865 55.086 17.2868V19.6078C55.086 20.2981 55.4063 20.9484 55.9367 21.3985C62.322 26.7908 66.3753 34.804 66.3753 43.7677C66.3753 52.7314 62.1619 61.0648 55.5464 66.4571H55.5564Z" fill="#1D1D1B"/>
<path d="M55.5264 24.4798C60.5405 29.3218 63.6531 36.0846 63.6531 43.5676C63.6531 51.8711 59.8199 59.2841 53.825 64.1761C53.0344 64.8264 52.0335 65.1665 51.0127 65.1665H22.3792C21.3583 65.1665 20.3575 64.8164 19.5668 64.1761C13.5619 59.2841 9.73877 51.8711 9.73877 43.5676C9.73877 40.5264 10.2492 37.6152 11.2 34.8941C11.9906 32.6332 13.0715 30.5023 14.4126 28.5615" fill="#1D1D1B"/>
</mask>
<g mask="url(#mask0_103_56)">
<path d="M-10.854 -2.22662L103.307 29.7915L94.4117 61.5077L-19.7493 29.4896L-10.854 -2.22662Z" fill="#FF48A0"/>
<path d="M-11.4307 31.4648L89.255 59.7036L79.1366 95.7809L-21.5491 67.5421L-11.4307 31.4648Z" fill="#CD1D72"/>
<path d="M0.59668 -32.4791L95.5986 -5.83438L86.7033 25.8818L-8.2986 -0.76285L0.59668 -32.4791Z" fill="#FFB1D7"/>
</g>
</svg>
