<svg width="73" height="78" viewBox="0 0 73 78" fill="none" xmlns="http://www.w3.org/2000/svg">
<mask id="mask0_47_43" style="mask-type:alpha" maskUnits="userSpaceOnUse" x="0" y="0" width="73" height="78">
<path fill-rule="evenodd" clip-rule="evenodd" d="M13.6408 8.2649H59.3592V16.3203C67.6678 23.0129 73 33.2907 73 44.8199C73 59.1944 64.7165 71.616 52.6995 77.5854L51.8649 78H21.1351L20.3005 77.5854C8.28353 71.616 0 59.1944 0 44.8199C0 33.2907 5.33225 23.0129 13.6408 16.3203V8.2649ZM36.5 16.2715C30.3159 16.2715 24.6032 18.2355 19.9346 21.5729C12.6793 26.7596 7.96831 35.2416 7.96831 44.8199C7.96831 55.7002 14.0522 65.173 23.0294 69.9934H49.9706C58.9478 65.173 65.0317 55.7002 65.0317 44.8199C65.0317 35.2416 60.3207 26.7596 53.0654 21.5729C48.3968 18.2355 42.6841 16.2715 36.5 16.2715Z" fill="white"/>
<path fill-rule="evenodd" clip-rule="evenodd" d="M59.5053 5.9404L13.4947 5.9404L13.4947 0L59.5053 4.04171e-06V5.9404Z" fill="white"/>
<path d="M34.5722 64.4404C34.5722 67.7212 31.9253 70.3808 28.6602 70.3808C25.3951 70.3808 22.7482 67.7212 22.7482 64.4404C22.7482 61.1596 25.3951 58.5 28.6602 58.5C31.9253 58.5 34.5722 61.1596 34.5722 64.4404Z" fill="white"/>
<path d="M44.5968 65.3444C44.5968 68.1259 42.3527 70.3808 39.5845 70.3808C36.8163 70.3808 34.5722 68.1259 34.5722 65.3444C34.5722 62.5628 36.8163 60.3079 39.5845 60.3079C42.3527 60.3079 44.5968 62.5628 44.5968 65.3444Z" fill="white"/>
<path d="M57.963 60.8245C57.963 64.8185 54.7407 68.0563 50.7658 68.0563C46.791 68.0563 43.5687 64.8185 43.5687 60.8245C43.5687 56.8305 46.791 53.5927 50.7658 53.5927C54.7407 53.5927 57.963 56.8305 57.963 60.8245Z" fill="white"/>
<path d="M23.2623 62.1159C23.2623 64.3982 21.421 66.2483 19.1496 66.2483C16.8783 66.2483 15.037 64.3982 15.037 62.1159C15.037 59.8336 16.8783 57.9834 19.1496 57.9834C21.421 57.9834 23.2623 59.8336 23.2623 62.1159Z" fill="white"/>
</mask>
<g mask="url(#mask0_47_43)">
<path d="M-9.854 1.77338L104.307 33.7915L95.4117 65.5077L-18.7493 33.4896L-9.854 1.77338Z" fill="#FF48A0"/>
<path d="M-10.4307 35.4648L90.255 63.7036L81.3598 95.4198L-19.3259 67.181L-10.4307 35.4648Z" fill="#CD1D72"/>
<path d="M1.59668 -28.4791L96.5986 -1.83438L87.7033 29.8818L-7.2986 3.23715L1.59668 -28.4791Z" fill="#FFB1D7"/>
</g>
</svg>
