<svg width="172" height="81" viewBox="0 0 172 81" fill="none" xmlns="http://www.w3.org/2000/svg">
<path d="M54.8811 34.9597C55.0986 34.7132 55.3306 34.4958 55.5722 34.2783C55.9781 33.911 55.1228 34.5489 55.5915 34.2735C55.7268 34.1913 55.8573 34.0995 55.9975 34.0222C56.0893 33.969 56.1811 33.9207 56.2778 33.8724L56.4227 33.7999C56.6595 33.6936 56.616 33.708 56.2826 33.853C56.3068 33.7274 57.225 33.5534 57.3554 33.5244C57.4859 33.4954 57.6212 33.4761 57.7517 33.4471C58.0997 33.3698 57.1235 33.4906 57.6744 33.4568C58.003 33.4374 58.3268 33.4133 58.6554 33.4181C58.8197 33.4181 58.984 33.4278 59.1483 33.4423C59.216 33.4471 59.7331 33.4374 59.3223 33.4519C58.9115 33.4664 59.4093 33.4712 59.4915 33.4857C59.7089 33.5244 59.9264 33.5776 60.139 33.6307C60.4628 33.7177 60.7721 33.824 61.0862 33.94C61.526 34.0995 60.9799 33.8869 60.9654 33.8869C61.0379 33.8675 61.3424 34.0705 61.41 34.1043C61.7145 34.2638 62.0044 34.4474 62.2896 34.6407C62.3862 34.7084 62.9033 34.9984 62.391 34.7036C62.5457 34.7906 62.681 34.9452 62.8115 35.0612C63.0869 35.3076 63.3479 35.5638 63.5992 35.8344C63.7248 35.9697 63.8457 36.1099 63.9665 36.25C63.981 36.2645 64.3483 36.7429 64.1211 36.4385C63.894 36.134 64.2516 36.627 64.2613 36.6415C64.3676 36.7913 64.4739 36.9459 64.5706 37.1054C64.8074 37.4727 65.0248 37.8496 65.2278 38.2314C65.3728 38.5068 65.5129 38.7871 65.6434 39.0723C65.6869 39.1689 65.9769 39.7295 65.6966 39.1834C65.7787 39.3477 65.8367 39.5362 65.9044 39.7102C66.1702 40.4109 66.3925 41.131 66.5761 41.8559C66.7259 42.4358 66.8371 43.0302 66.9289 43.6246C66.9434 43.7358 66.953 43.8517 66.9772 43.9581C66.8081 43.1848 66.9289 43.5956 66.953 43.7986C66.9772 44.016 67.0014 44.2335 67.0207 44.4558C67.0787 45.0744 67.1125 45.6978 67.1222 46.3212C67.1318 46.9446 67.1173 47.6067 67.0739 48.2494C67.0545 48.5442 67.0207 48.839 66.9917 49.1338C66.9337 49.7524 67.0884 48.5925 66.982 49.2111C66.9434 49.4528 66.9047 49.6944 66.8564 49.936C66.7259 50.6174 66.5519 51.2892 66.3345 51.9464C66.2765 52.13 66.2088 52.3137 66.1412 52.4925C66.1073 52.5795 65.8512 53.1787 66.0928 52.6375C65.9334 52.9999 65.7594 53.3527 65.5709 53.7006C65.3969 54.0196 65.2085 54.3289 65.0103 54.6285C64.9427 54.7348 64.3966 55.5467 64.7494 55.0199C64.3531 55.6095 63.7877 56.1363 63.2657 56.6147C63.1304 56.7355 62.9951 56.8563 62.855 56.9723C62.7728 57.0448 62.3234 57.4604 62.7776 57.0448C62.5167 57.2816 62.1832 57.4749 61.8836 57.6634C61.6275 57.8229 61.3714 57.9775 61.1056 58.1177C60.9461 58.2046 60.7866 58.282 60.6223 58.3641C60.516 58.4173 60.4048 58.4656 60.2985 58.5139C60.603 58.3883 60.6271 58.3786 60.3807 58.4753C59.7669 58.7024 59.1435 58.9005 58.5008 59.031C58.3413 59.0649 58.1383 59.1277 57.974 59.1228C58.5056 59.1373 58.2398 59.0938 58.0852 59.1035C57.6696 59.1277 57.254 59.1567 56.8335 59.147C56.6547 59.1422 56.4759 59.1325 56.2923 59.118L56.1135 59.1035C55.838 59.0697 55.8767 59.0794 56.2246 59.118C55.9878 59.1663 55.5819 58.9972 55.3499 58.9392C55.002 58.8522 54.6637 58.7459 54.3254 58.6251C54.2964 58.6154 53.7503 58.4028 54.1176 58.5526C54.4607 58.6927 53.818 58.4076 53.7551 58.3786C53.1607 58.0838 52.6146 57.7262 52.0734 57.3541C51.5708 57.011 52.4503 57.6924 51.9912 57.2913C51.8559 57.1705 51.7158 57.0593 51.5805 56.9385C51.2663 56.6582 50.9667 56.3586 50.6816 56.0493C50.4834 55.8318 50.2611 55.6095 50.0968 55.3631C50.4351 55.8753 50.1065 55.3631 50.0437 55.2712C49.9422 55.1214 49.8407 54.9716 49.7441 54.8218C49.5797 54.5705 49.4299 54.3095 49.285 54.0438C49.198 53.8843 49.1158 53.7248 49.0385 53.5653C48.9757 53.4397 48.9177 53.314 48.8645 53.1884C48.9708 53.4493 48.9708 53.4493 48.8645 53.1884C48.5987 52.478 48.3668 51.7579 48.2024 51.0137C48.159 50.8107 48.1155 50.6078 48.0816 50.4048C48.0671 50.3178 47.9753 49.6316 48.043 50.226C47.9946 49.8152 47.956 49.3996 47.9415 48.984C47.9028 48.0755 47.9511 47.1814 48.0333 46.2777C48.0961 45.5867 47.9367 46.7755 48.0575 46.0941C48.1058 45.8186 48.1493 45.5432 48.2073 45.2725C48.2894 44.8618 48.3861 44.4606 48.4972 44.0547C48.6132 43.6294 48.7437 43.209 48.8935 42.7982C48.9515 42.6291 49.0143 42.4599 49.082 42.2908C49.1351 42.1603 49.3091 41.6287 49.111 42.199C49.3574 41.4692 49.7875 40.7637 50.179 40.1016C50.3965 39.7392 50.6236 39.3816 50.8652 39.0384C50.9667 38.8886 51.0779 38.7436 51.1793 38.5987C51.537 38.1009 50.8507 38.9853 51.2422 38.5165C51.7399 37.9173 52.2619 37.3374 52.8321 36.8058C53.1269 36.5303 53.441 36.2065 53.7841 35.989C53.267 36.3225 53.7745 36.0035 53.8663 35.9359C54.0113 35.8296 54.1611 35.7281 54.3061 35.6314C55.0068 35.1675 55.7462 34.7712 56.5146 34.4378C57.6792 33.9303 58.032 32.1423 57.3796 31.1323C56.6016 29.9289 55.3161 29.7211 54.0741 30.2672C47.5984 33.0943 43.6549 40.0533 43.133 46.906C42.8527 50.5933 43.6888 54.5657 45.8103 57.6344C47.8062 60.5243 50.7637 62.8343 54.2287 63.6413C61.555 65.3473 68.5816 60.215 70.9206 53.4203C72.7039 48.2398 72.1626 42.1506 70.0266 37.1585C68.7169 34.0898 66.4263 31.0888 63.3092 29.6921C60.1922 28.2955 56.4034 28.1215 53.3975 29.9434C52.6775 30.3784 51.9961 30.9293 51.4403 31.5624C50.6043 32.5096 50.4351 34.056 51.4403 34.979C52.3537 35.8199 53.9678 35.9939 54.857 34.979L54.8811 34.9597Z" fill="white"/>
<path d="M76.5554 31.6639C77.3577 41.3581 77.4978 51.0959 76.971 60.8095C76.9034 62.0756 78.1309 63.2838 79.3874 63.2258C80.755 63.163 81.7312 62.1626 81.8037 60.8095C82.3256 51.0959 82.1855 41.3581 81.3881 31.6639C81.2866 30.4074 80.3491 29.1847 78.9718 29.2476C77.7539 29.3007 76.4443 30.3156 76.5554 31.6639Z" fill="white"/>
<path d="M80.4651 34.3315C81.9342 33.9207 83.413 33.5196 84.9256 33.278C85.0754 33.2538 85.2252 33.2297 85.3751 33.2103C84.8386 33.2828 85.5877 33.1959 85.636 33.191C85.9405 33.162 86.2401 33.1427 86.5445 33.133C86.9263 33.1185 87.3033 33.1185 87.685 33.133C87.8349 33.1379 87.9895 33.1475 88.1393 33.162C88.2166 33.1669 88.8352 33.2393 88.4534 33.1862C88.0475 33.1282 88.6467 33.2248 88.6757 33.2297C88.7966 33.2538 88.9174 33.278 89.0382 33.3022C89.3378 33.365 89.6326 33.4423 89.9274 33.5341C90.2222 33.626 90.5218 33.7081 90.7876 33.8434C90.7199 33.8096 90.3237 33.6163 90.7103 33.8193C90.8697 33.9014 91.0341 33.9787 91.1935 34.0706C91.4593 34.2155 91.7058 34.3847 91.9619 34.549C92.3389 34.7954 91.9619 34.5248 91.9039 34.4958C92.0489 34.5683 92.1987 34.7423 92.3147 34.8534C92.4935 35.0178 92.6482 35.2014 92.8173 35.3754C93.2329 35.7958 92.566 34.9598 92.9043 35.4817C93.0106 35.646 93.1217 35.8006 93.2184 35.9698C93.3682 36.2211 93.4842 36.482 93.6243 36.7382C93.808 37.0716 93.4359 36.2017 93.6437 36.7817C93.6872 36.9025 93.7355 37.0233 93.7742 37.1441C93.9965 37.7965 94.1608 38.4634 94.2816 39.14C94.3347 39.4348 94.3879 39.7296 94.4217 40.0244C94.3492 39.4058 94.4217 40.0775 94.4314 40.1742C94.4459 40.3046 94.4604 40.44 94.4701 40.5704C94.5377 41.276 94.5909 41.9864 94.6392 42.6968C94.8422 45.4901 95.0161 48.2833 95.0838 51.0862C95.1611 54.2661 95.0983 57.4508 94.9437 60.6258C94.8808 61.892 96.0987 63.1002 97.36 63.0422C98.7228 62.9793 99.7086 61.979 99.7763 60.6258C100.066 54.6382 99.9116 48.6748 99.4718 42.6968C99.2447 39.6281 99.0272 36.4289 97.4759 33.6936C95.9247 30.9583 93.1942 29.2428 90.2173 28.6194C86.4865 27.8413 82.7606 28.6628 79.1651 29.6729C77.9473 30.016 77.0726 31.3981 77.4785 32.6449C77.8845 33.8917 79.1458 34.6988 80.4506 34.3315H80.4651Z" fill="white"/>
<path d="M55.891 30.6635C54.3397 33.0847 55.1274 36.453 57.1668 38.3426C59.2061 40.2321 61.8834 40.7299 64.522 41.2325C67.1606 41.7351 70.3405 42.2377 73.013 41.1455C75.0572 40.3143 76.8307 38.9322 78.3288 37.3181C79.7206 35.8151 81.3444 33.8241 81.3831 31.659C81.4072 30.3929 80.2571 29.1847 78.9667 29.2427C77.6764 29.3007 76.5746 30.3059 76.5504 31.659C76.5408 32.1085 76.7002 31.142 76.5891 31.3981C76.5504 31.4899 76.5263 31.6059 76.4973 31.7025C76.3716 32.1616 76.7437 31.2289 76.5649 31.5576C76.4779 31.7122 76.4055 31.8717 76.3185 32.0263C76.1542 32.3163 75.9705 32.5917 75.782 32.8624C75.7192 32.9494 75.4099 33.394 75.6226 33.0847C75.8352 32.7754 75.6419 33.0605 75.5791 33.133C75.4969 33.2296 75.4148 33.3311 75.3326 33.4278C74.8059 34.0415 74.2356 34.6166 73.6267 35.153C73.4624 35.298 73.2932 35.4333 73.1241 35.5735C72.7955 35.8441 73.4866 35.3222 73.0371 35.6363C72.6988 35.8731 72.3557 36.1051 71.9933 36.308C71.8435 36.395 71.6936 36.4723 71.539 36.5497C71.4762 36.5787 71.3409 36.6222 71.278 36.6705C71.6018 36.4095 71.6888 36.511 71.4713 36.5835C71.307 36.6367 71.1476 36.6946 70.9833 36.7381C70.8383 36.7768 70.6981 36.8106 70.5483 36.8445C70.355 36.8879 70.0699 36.9363 70.4275 36.8879C69.8766 36.9653 69.316 36.9701 68.7602 36.9508C68.4993 36.9411 68.2335 36.9266 67.9725 36.9024C67.8227 36.8879 67.6729 36.8734 67.5231 36.859L67.296 36.83C67.5231 36.8638 67.5521 36.8638 67.3733 36.8396C66.2279 36.6415 65.0874 36.4337 63.9421 36.2114C63.4975 36.1244 63.0577 36.0277 62.6228 35.9021C62.3763 35.8344 62.1299 35.7571 61.8834 35.6701C61.7916 35.6363 61.7046 35.6025 61.6128 35.5686C61.3422 35.4768 61.9752 35.7668 61.5741 35.5445C61.3228 35.4043 61.0715 35.2835 60.8299 35.124C60.7526 35.0709 60.6753 35.0177 60.5931 34.9646C61.0184 35.24 60.6656 35.0129 60.5689 34.9211C60.4819 34.8437 60.3998 34.7616 60.3225 34.6746C60.0277 34.3557 60.1872 34.6649 60.3273 34.7036C60.2065 34.6698 60.047 34.2397 59.9842 34.1189C59.7619 33.7032 60.0518 34.1962 60.0277 34.23C60.0422 34.2058 59.9214 33.8869 59.9069 33.8289C59.8827 33.7274 59.7522 33.4036 59.873 33.7419C59.9842 34.0464 59.873 33.7032 59.873 33.5728C59.873 33.4906 59.9069 33.3118 59.8875 33.249C59.9262 33.3698 59.7764 33.7371 59.8875 33.4133C59.8875 33.423 59.96 33.1088 59.9842 33.104L59.873 33.3843C59.9262 33.2876 59.9794 33.191 60.0422 33.0992C60.7236 32.0312 60.2983 30.3832 59.1771 29.7937C57.9786 29.1606 56.6013 29.523 55.8716 30.6587L55.891 30.6635Z" fill="white"/>
<path d="M97.6984 35.0082C101.043 39.0676 108.427 38.6279 112.423 35.5833C114.893 33.7662 115.898 30.8812 116.333 27.8849C116.918 23.4534 116.792 18.5193 115.009 14.4647C114.327 13.0439 112.844 11.164 111.36 11.2897C110.35 11.5168 109.519 12.6235 109.35 13.6818C108.765 16.306 108.562 19.0122 108.606 21.7282C108.673 27.2519 109.669 32.906 110.766 38.5892C112.564 48.7232 115.574 59.442 113.593 69.924C112.863 73.2536 111.003 76.6607 107.968 78.5164C104.72 80.6717 100.042 80.6234 97.2779 77.5788C95.8765 76.1194 95.0211 74.0027 95.3497 71.9198L95.3642 72.5143C95.2531 71.7797 95.3497 71.0016 95.514 70.3009C97.1088 64.6274 102.56 60.9063 107.281 58.0212C109.089 56.958 111.007 56.5956 112.694 55.7354C115.995 54.1889 119.237 52.6666 121.518 49.7864C123.717 47.1236 125.085 43.7311 125.955 40.1888L129.71 41.1022C128.729 45.0843 127.163 49.018 124.5 52.251C123.152 53.8941 121.509 55.3198 119.725 56.4409C117.966 57.5766 116.033 58.3885 114.448 59.181C113.458 59.6933 112.438 60.0461 111.554 60.365C108.876 61.2736 106.847 62.8248 104.667 64.4341C103.251 65.5504 101.927 66.7731 100.898 68.1166C100.037 69.2667 99.24 70.5474 99.182 71.9198L99.1723 71.8474L99.1868 72.4418C98.9935 74.0993 101.072 75.8729 102.705 75.7666C106.054 75.757 108.461 72.2001 108.958 68.9236C109.21 67.6768 109.33 66.3526 109.355 64.985C109.519 49.047 101.999 33.8919 103.198 17.1662C103.546 13.5707 104.005 9.47261 107.214 7.19161C110.07 4.94444 114.008 5.33588 116.676 7.65071C123.215 12.8651 123.239 26.324 120.392 33.5488C117.821 40.2226 109.993 43.5861 103.232 42.4408C99.8054 41.9189 96.3646 40.2371 94.4653 37.1394L97.6935 35.0131L97.6984 35.0082Z" fill="white"/>
<path fill-rule="evenodd" clip-rule="evenodd" d="M130.543 24.9167C130.564 24.8246 130.575 24.7286 130.574 24.6298C130.567 23.9626 130.021 23.4273 129.354 23.4341C126.801 23.4603 124.754 25.5543 124.78 28.1051C124.806 30.6582 126.9 32.705 129.451 32.6788C132.004 32.6526 134.051 30.5586 134.025 28.0078C134.011 26.6858 133.295 25.3611 131.939 24.9596C131.469 24.8205 131 24.8128 130.543 24.9167ZM128.749 25.9485C127.842 26.2297 127.186 27.0811 127.196 28.0803C127.209 29.2967 128.208 30.2751 129.426 30.2626C130.643 30.2501 131.621 29.2513 131.609 28.0326C131.603 27.4699 131.329 27.2989 131.253 27.2764C131.225 27.2683 130.76 27.1567 130.022 28.1508C129.624 28.6866 128.868 28.7984 128.332 28.4007C127.796 28.0029 127.684 27.2462 128.082 26.7104C128.291 26.4292 128.514 26.1738 128.749 25.9485Z" fill="white"/>
<path d="M153.254 70.2041C154.076 69.7643 154.839 68.9476 155.279 68.1405C156.342 66.2026 156.047 64.057 155.11 62.1384C154.602 61.0994 153.868 60.2827 152.81 59.7994C151.901 59.3838 150.939 59.1518 149.929 59.1905C147.909 59.263 146.087 60.1039 144.526 61.3459C143.125 62.4622 142.014 64.057 141.545 65.7967C141.076 67.5364 141.24 69.6386 141.574 71.4315C142.12 74.3746 143.874 77.0229 146.45 78.5742C151.447 81.5801 158.319 80.2559 162.89 77.0664C169.54 72.4271 172.464 63.5544 170.695 55.74C169.226 49.2449 163.504 41.6142 155.941 44.0595C154.994 44.3688 154.076 44.7989 153.23 45.3257L156.536 48.6312C159.111 43.4313 161.687 38.2314 164.263 33.0315C164.621 32.3066 164.983 31.5817 165.341 30.852C165.732 30.0642 165.8 29.1992 165.341 28.4115C164.939 27.7253 164.079 27.1405 163.253 27.213C161.876 27.3386 160.503 27.5464 159.131 27.7591C158.415 27.8702 157.705 27.9814 156.99 28.0877C156.627 28.1409 156.265 28.1989 155.902 28.252C155.719 28.281 155.535 28.3052 155.352 28.3293C155.245 28.3438 155.139 28.3583 155.033 28.3728C154.685 28.4212 155.105 28.3245 155.197 28.3535C154.936 28.2762 154.346 28.4646 154.071 28.4985C153.67 28.5468 153.264 28.5903 152.858 28.6338C152.085 28.7111 151.311 28.7739 150.538 28.8078C149.765 28.8416 149.05 28.8561 148.306 28.8368C147.962 28.8271 147.624 28.8078 147.281 28.7836C147.117 28.7691 146.952 28.7546 146.788 28.7401C146.696 28.7304 146.6 28.7111 146.513 28.7063C146.59 28.7063 147.078 28.7933 146.749 28.7353C146.073 28.6193 145.411 28.4743 144.763 28.2423C144.183 28.0394 145.174 28.4598 144.744 28.2375C144.609 28.165 144.473 28.1022 144.343 28.0249C144.212 27.9476 144.092 27.8702 143.966 27.7881C143.555 27.5271 144.42 28.1795 143.99 27.7977L144.613 28.8658C144.483 28.5178 144.391 28.1747 144.299 27.8122C144.193 27.4015 144.309 28.3293 144.314 27.9379C144.314 27.7929 144.323 27.6286 144.314 27.4836C144.29 27.1357 144.174 28.1215 144.299 27.6914C144.425 27.2613 144.048 28.1795 144.188 27.9186C144.367 27.5899 144.038 28.1022 143.976 28.1699C144.27 27.8557 143.536 28.4598 143.739 28.3487C143.193 28.6483 142.879 28.6338 142.439 28.5323C142.821 28.6193 141.869 28.2665 142.139 28.4115C142.41 28.5565 141.637 27.9331 141.951 28.2858C142.154 28.513 141.617 27.7108 141.82 28.1312C141.864 28.2278 142.033 28.5806 141.869 28.1795C141.695 27.7446 141.883 28.2423 141.912 28.3487C141.946 28.4646 141.956 28.8078 142.033 28.8948C142.028 28.8899 141.984 28.368 141.999 28.6386C142.004 28.7498 142.018 28.8609 142.023 28.9721C142.033 29.1412 142.033 29.3104 142.038 29.4795C142.047 29.7743 142.076 30.0739 142.096 30.3687C142.134 30.9438 142.173 31.5189 142.212 32.094C142.294 33.3069 142.376 34.5151 142.439 35.7281C142.574 38.2604 142.637 40.7975 142.497 43.3298C142.463 43.9581 142.415 44.5863 142.352 45.2145C142.323 45.5045 142.289 45.7896 142.255 46.0796C142.192 46.6208 142.323 45.6253 142.26 46.0313C142.236 46.1859 142.216 46.3357 142.192 46.4904C142.004 47.6792 141.743 48.8583 141.385 50.0133C141.211 50.5739 141.008 51.1152 140.791 51.6613C140.68 51.9367 141.013 51.1587 140.887 51.4245C140.863 51.4825 140.839 51.5356 140.81 51.5936C140.752 51.7241 140.689 51.8546 140.627 51.9851C140.501 52.2412 140.37 52.4925 140.235 52.7438C139.96 53.2367 139.66 53.7151 139.331 54.1742C139.298 54.2226 139.259 54.2709 139.225 54.3192C139.008 54.6285 139.365 54.1211 139.385 54.1162C139.327 54.1259 139.153 54.4062 139.119 54.4449C138.935 54.6623 138.747 54.8701 138.553 55.0779C138.36 55.2857 138.152 55.4839 137.94 55.6723C137.848 55.7545 137.756 55.8367 137.664 55.914C137.592 55.9768 137.123 56.3489 137.476 56.0783C137.828 55.8077 137.408 56.1266 137.316 56.1894C137.215 56.2619 137.108 56.3344 137.002 56.4069C136.736 56.5857 136.461 56.7549 136.181 56.9143C135.929 57.0545 135.678 57.1898 135.417 57.3154C135.277 57.3831 135.127 57.4459 134.987 57.5136C134.755 57.6296 135.272 57.3976 135.248 57.4073C135.141 57.4363 135.03 57.4942 134.924 57.5377C134.291 57.7842 133.639 57.9823 132.976 58.1467C132.677 58.2191 132.266 58.224 131.991 58.3593C132.305 58.1998 132.537 58.2965 132.208 58.2965C131.792 58.2965 132.88 58.4463 132.484 58.34C132.406 58.3206 132.073 58.2916 132.034 58.2143C132.053 58.253 132.696 58.5526 132.319 58.3255C132.237 58.2771 132.155 58.2288 132.073 58.1805C131.846 58.0452 131.85 57.847 132.3 58.3641C132.252 58.311 132.184 58.2675 132.136 58.2191C132.034 58.1128 131.594 57.5957 131.913 58.0065C132.232 58.4173 131.855 57.9099 131.778 57.7794C131.662 57.5957 131.561 57.4024 131.464 57.2043C131.42 57.1125 131.382 57.0013 131.329 56.9143C131.411 57.0448 131.565 57.5136 131.425 57.1415C131.338 56.9095 131.251 56.6775 131.179 56.4407C131.029 55.9671 130.903 55.479 130.797 54.9909C130.681 54.4642 130.594 53.9278 130.512 53.3962C130.439 52.9322 130.551 53.7248 130.531 53.5605C130.517 53.4203 130.497 53.2754 130.478 53.1352C130.444 52.8453 130.415 52.5601 130.391 52.2702C130 47.9981 130.261 43.7164 130.377 39.4395C130.386 39.1399 130.391 38.8355 130.391 38.5358C130.391 37.2697 129.28 36.0615 127.975 36.1195C126.67 36.1775 125.558 37.1827 125.558 38.5358C125.558 40.986 125.38 43.4313 125.351 45.8814C125.312 49.2401 125.409 52.6471 126.066 55.9478C126.626 58.7604 127.873 61.9451 130.85 62.9068C132.619 63.4819 134.678 62.8005 136.34 62.1432C138.215 61.399 139.906 60.418 141.405 59.0504C146.706 54.2081 147.484 46.2825 147.402 39.5265C147.363 36.2307 147.054 32.959 146.88 29.668C146.759 27.387 146.295 24.7484 143.811 23.9171C142.7 23.545 141.419 23.9075 140.602 24.7194C139.786 25.5312 139.472 26.6282 139.476 27.7156C139.476 28.9479 139.844 30.6297 140.825 31.4367C141.67 32.1278 142.569 32.5965 143.599 32.959C145.396 33.5921 147.407 33.7129 149.301 33.6936C153.404 33.6549 157.468 32.8623 161.518 32.2728C161.735 32.2438 161.948 32.2148 162.166 32.1809C162.156 32.1809 161.508 32.2679 161.895 32.2196C161.977 32.2099 162.054 32.2003 162.137 32.1906C162.509 32.1423 162.881 32.1036 163.258 32.0698C162.562 30.8568 161.866 29.6438 161.17 28.4357C158.594 33.6356 156.018 38.8355 153.443 44.0354C153.085 44.7603 152.723 45.4852 152.365 46.2149C151.901 47.1476 151.92 48.3896 152.742 49.1435C153.52 49.8539 154.738 50.1052 155.671 49.5204C155.999 49.3174 156.328 49.1241 156.676 48.955C156.71 48.9357 156.961 48.8245 156.961 48.8197C156.961 48.839 156.492 48.9888 156.739 48.9163C156.927 48.8583 157.111 48.7762 157.299 48.7182C157.613 48.6215 157.952 48.5877 158.261 48.4862C158.498 48.4089 157.952 48.5201 157.956 48.5201C158.043 48.5201 158.14 48.5007 158.227 48.4911C158.406 48.4766 158.58 48.4669 158.759 48.4669C158.913 48.4669 159.063 48.4669 159.218 48.4814C159.28 48.4814 159.348 48.4911 159.411 48.4959C159.802 48.5152 159.179 48.4669 159.155 48.4572C159.454 48.5539 159.788 48.578 160.092 48.6699C160.237 48.7134 160.373 48.7665 160.518 48.8148C160.899 48.9405 159.972 48.5491 160.474 48.7955C160.769 48.9405 161.054 49.0903 161.334 49.2594C161.465 49.3416 161.595 49.4286 161.721 49.5156C161.914 49.6509 162.132 49.9602 161.716 49.4962C161.924 49.7282 162.209 49.9119 162.436 50.1245C162.663 50.3371 162.895 50.5884 163.113 50.8301C163.224 50.9557 163.325 51.0814 163.432 51.2118C163.49 51.2843 163.698 51.5405 163.466 51.2505C163.205 50.9315 163.504 51.3085 163.538 51.352C163.944 51.9126 164.306 52.5021 164.63 53.1111C164.795 53.4203 164.954 53.7393 165.099 54.0582C165.123 54.1114 165.191 54.3192 165.225 54.3385C165.225 54.3385 165.041 53.8698 165.128 54.1114C165.2 54.3047 165.278 54.4884 165.35 54.6817C165.611 55.3776 165.824 56.088 165.998 56.808C166.08 57.156 166.152 57.5039 166.215 57.8567C166.244 58.0307 166.268 58.2095 166.302 58.3834C166.351 58.6492 166.268 58.1032 166.268 58.1177C166.254 58.224 166.297 58.3786 166.312 58.4946C166.384 59.205 166.413 59.9251 166.384 60.6403C166.37 61.0221 166.341 61.399 166.312 61.7808C166.297 62.0224 166.273 62.264 166.249 62.5057C166.239 62.6072 166.225 62.7135 166.215 62.815C166.254 62.4719 166.239 62.6458 166.201 62.8826C166.046 63.8443 165.819 64.7915 165.519 65.7145C165.379 66.1495 165.22 66.5748 165.055 67C164.891 67.4253 165.196 66.7052 164.997 67.1305C164.891 67.3576 164.785 67.5896 164.669 67.8167C164.268 68.6093 163.813 69.3777 163.296 70.1026C163.229 70.1992 163.156 70.2959 163.089 70.3925C162.934 70.6148 163.19 70.2621 163.2 70.2524C163.098 70.4215 162.944 70.5713 162.813 70.7212C162.557 71.0208 162.286 71.3156 162.006 71.5959C161.798 71.8037 161.586 72.0018 161.368 72.1999C161.257 72.2966 161.146 72.3932 161.035 72.4851C160.943 72.5624 160.503 72.9103 160.841 72.6494C161.18 72.3884 160.774 72.6977 160.682 72.7605C160.561 72.8475 160.445 72.9297 160.324 73.0118C160.063 73.1858 159.802 73.3549 159.532 73.5192C159.015 73.8285 158.478 74.1088 157.927 74.3553C157.869 74.3795 157.811 74.4036 157.758 74.4326C157.41 74.5921 157.976 74.3408 157.99 74.336C157.855 74.3795 157.72 74.4423 157.584 74.4954C157.294 74.6066 157.004 74.7081 156.71 74.7999C156.149 74.9787 155.574 75.1237 154.999 75.2397C154.743 75.288 154.482 75.3122 154.23 75.3701C154.999 75.201 154.554 75.3266 154.342 75.3508C154.168 75.3701 153.989 75.3846 153.81 75.3943C153.269 75.4281 152.727 75.433 152.186 75.3991C151.925 75.3846 151.655 75.3218 151.394 75.3266C151.394 75.3266 152.065 75.4378 151.703 75.3653C151.65 75.3556 151.592 75.346 151.539 75.3363C151.394 75.3121 151.249 75.2832 151.104 75.2493C150.582 75.1333 150.089 74.9642 149.591 74.7902C149.224 74.6597 150.152 75.056 149.722 74.8434C149.61 74.7902 149.494 74.7371 149.383 74.6791C149.146 74.5583 148.914 74.4229 148.692 74.278C148.586 74.2103 148.484 74.1378 148.383 74.0702C148.339 74.0412 148.296 74.0073 148.252 73.9735C148.02 73.814 148.697 74.3456 148.489 74.1523C148.281 73.959 148.083 73.8044 147.895 73.6111C147.716 73.4323 147.557 73.2389 147.387 73.0456C147.141 72.7654 147.75 73.5724 147.465 73.1375C147.383 73.0118 147.296 72.891 147.218 72.7654C147.078 72.5382 146.948 72.3063 146.827 72.0646C146.769 71.9486 146.725 71.7988 146.653 71.6925C146.638 71.6732 146.851 72.2241 146.783 71.9921C146.754 71.8955 146.711 71.7988 146.677 71.707C146.474 71.1416 146.329 70.552 146.228 69.9624C146.121 69.3294 146.252 70.291 146.223 69.9189C146.213 69.774 146.194 69.6338 146.184 69.4888C146.155 69.1167 146.145 68.7398 146.15 68.3628C146.15 68.0246 146.179 67.6766 146.17 67.3383C146.16 67.029 146.058 67.8699 146.136 67.5654C146.15 67.4978 146.16 67.4301 146.174 67.3625C146.213 67.1837 146.261 67.0049 146.319 66.8309C146.339 66.7681 146.416 66.6231 146.411 66.5699C146.411 66.5699 146.184 67.0435 146.3 66.8261C146.377 66.6859 146.44 66.5361 146.518 66.3911C146.595 66.2461 146.682 66.1108 146.774 65.9755C146.812 65.9175 146.856 65.8595 146.894 65.8015C147.155 65.4004 146.624 66.1012 146.817 65.903C147.044 65.6662 147.252 65.4149 147.494 65.1878C147.6 65.0911 147.793 64.9848 147.866 64.864C147.866 64.864 147.445 65.1636 147.658 65.0283C147.755 64.9655 147.846 64.893 147.943 64.8253C148.214 64.6465 148.494 64.4822 148.784 64.3421C148.847 64.3131 148.91 64.2889 148.968 64.2551C149.238 64.115 148.475 64.4291 148.765 64.3421C148.934 64.2889 149.098 64.2213 149.272 64.1729C149.417 64.1294 149.567 64.0908 149.717 64.0618C149.78 64.0473 149.847 64.0425 149.905 64.028C150.2 63.9555 149.34 64.0715 149.644 64.0618C149.949 64.0521 150.277 64.086 150.572 64.0618C150.572 64.0618 150.026 63.9361 150.229 64.0183C150.301 64.0473 150.388 64.0521 150.466 64.0666C150.558 64.0908 150.78 64.2019 150.867 64.1874C150.678 64.2213 150.355 63.9168 150.722 64.1439C150.785 64.1826 150.862 64.2309 150.93 64.2648C151.239 64.4194 150.756 64.0811 150.654 63.9893C150.442 63.7912 150.635 63.97 150.683 64.0618C150.746 64.1826 150.819 64.2986 150.881 64.4194C150.925 64.5064 150.964 64.5934 151.007 64.6755C151.147 64.922 150.93 64.5354 150.944 64.5112C150.92 64.5547 151.123 65.0573 151.142 65.1298C151.157 65.1975 151.162 65.2893 151.191 65.3473C151.292 65.5696 151.166 64.7577 151.171 65.1878C151.171 65.3134 151.181 65.4391 151.181 65.5696C151.181 65.6227 151.152 65.7484 151.162 65.8064C151.162 65.787 151.287 65.2699 151.205 65.4439C151.162 65.5357 151.128 65.7001 151.109 65.8064C151.065 66.0673 151.408 65.2651 151.157 65.6807C151.104 65.7677 151.041 65.8595 150.993 65.9513C150.794 66.3283 151.355 65.5696 151.142 65.758C151.017 65.874 150.886 66.0045 150.77 66.1302C150.591 66.3138 151.384 65.7049 150.954 65.9803C150.915 66.0045 150.877 66.0287 150.838 66.048C149.722 66.6472 149.282 68.2855 149.973 69.3535C150.703 70.4844 152.085 70.8613 153.278 70.2186L153.254 70.2041Z" fill="white"/>
<path d="M30.6938 12.9568C26.1414 11.3185 21.4006 16.0448 21.7147 20.5343C21.9419 23.7867 24.421 26.9279 27.3254 28.2955C32.9071 30.9245 39.9047 29.1799 44.2976 25.0528C46.8734 22.6365 48.1009 19.4277 48.5407 15.982C48.9514 12.7586 48.2507 9.29846 46.3273 6.64052C42.2002 0.938015 34.7967 -0.738907 28.1276 0.280778C26.4507 0.536907 24.9091 1.07816 23.3095 1.61458C21.7099 2.15101 20.0475 2.81791 18.501 3.61046C15.587 5.10374 12.8952 7.11895 10.5852 9.43861C5.97003 14.0634 2.70317 20.0511 1.12291 26.3818C-0.457364 32.7126 -0.433201 39.5411 1.60134 45.7607C2.63069 48.9067 4.12397 51.9174 6.11984 54.5657C6.44846 55.0055 6.78675 55.4404 7.12986 55.8657C7.25551 56.0203 7.38116 56.1701 7.50681 56.3199C7.56963 56.3973 7.63246 56.4746 7.70011 56.5471C7.99007 56.8612 7.52131 56.204 7.63246 56.4359C7.82093 56.8129 8.2462 57.2381 8.53132 57.5764C8.77779 57.8712 9.03392 58.1563 9.29971 58.4318C10.3774 59.553 11.6097 60.5437 12.9 61.4039C18.0323 64.8205 24.479 65.8885 30.5101 64.8979C36.6137 63.8975 42.2244 60.2875 45.3704 54.9136C46.2162 53.4639 46.8831 51.8884 47.376 50.284C47.7529 49.0758 46.9314 47.597 45.6894 47.3119C44.3798 47.0123 43.1184 47.7082 42.7173 48.9985C42.6062 49.3513 42.4902 49.6992 42.3646 50.0472C42.3066 50.2067 42.2437 50.3661 42.1809 50.5208C42.1471 50.6029 42.0988 50.6996 42.0746 50.7866C42.1278 50.6029 42.2824 50.3227 42.1181 50.6706C41.8185 51.3278 41.4947 51.9706 41.1274 52.5892C40.9534 52.8791 40.7698 53.1691 40.5813 53.4494C40.4943 53.5798 40.4025 53.7103 40.3107 53.836C40.243 53.9278 39.8468 54.4594 40.1029 54.1259C40.359 53.7925 40.0304 54.2129 39.9627 54.2951C39.8516 54.4304 39.7356 54.5657 39.6196 54.6962C39.3877 54.9571 39.1509 55.2133 38.9092 55.4646C38.455 55.9237 37.9765 56.3586 37.4739 56.7694C37.4063 56.8225 37.3386 56.8757 37.271 56.9289C36.9713 57.1705 37.4353 56.7984 37.4546 56.7887C37.329 56.866 37.213 56.9675 37.0922 57.0545C36.8167 57.2526 36.5316 57.4459 36.2464 57.6296C35.6907 57.9824 35.1156 58.3062 34.526 58.6009C34.2409 58.7411 33.951 58.8764 33.661 59.0069C33.1487 59.2389 34.0863 58.8377 33.7093 58.9876C33.5305 59.0552 33.3517 59.1277 33.1729 59.1954C31.9357 59.6545 30.6503 59.9927 29.3503 60.215C29.2005 60.2392 29.0555 60.2634 28.9057 60.2875C28.8235 60.302 28.7365 60.3117 28.6496 60.3262C28.6641 60.3262 29.302 60.2489 28.9105 60.2875C28.5722 60.3214 28.2291 60.36 27.886 60.3842C27.2433 60.4325 26.6005 60.4518 25.9578 60.4422C25.315 60.4325 24.6288 60.3987 23.9667 60.331C23.8169 60.3165 23.6671 60.302 23.5173 60.2827C22.8891 60.2102 23.9281 60.3504 23.5221 60.2827C23.1839 60.2295 22.8456 60.1764 22.5073 60.1087C21.2073 59.8574 19.9315 59.495 18.6992 59.0166C18.559 58.9634 18.4237 58.9054 18.2836 58.8522C18.0033 58.7459 18.7813 59.0745 18.5107 58.9489C18.4527 58.9199 18.3947 58.8957 18.3367 58.8716C18.0274 58.7363 17.7182 58.5864 17.4185 58.4366C16.8144 58.1322 16.2249 57.7987 15.6546 57.4314C15.4033 57.272 15.1617 57.1077 14.9152 56.9385C14.7751 56.8419 14.6398 56.7404 14.5045 56.6389C14.4513 56.6002 14.403 56.5616 14.3546 56.5229C14.1178 56.3538 14.8089 56.8854 14.4948 56.6292C13.9874 56.2136 13.4944 55.7835 13.0257 55.3196C12.5569 54.8557 12.1123 54.3627 11.7015 53.8505C11.6484 53.7828 11.6 53.7152 11.5421 53.6475C11.5179 53.6185 11.8948 54.0776 11.7257 53.8795C11.4986 53.6137 11.2956 53.3237 11.0636 53.0579C10.8075 52.7583 10.5562 52.4538 10.3097 52.1446C9.97145 51.7241 10.532 52.449 10.2856 52.1107C10.1696 51.9561 10.0536 51.7966 9.93762 51.642C9.71049 51.3278 9.49302 51.0089 9.27555 50.6851C8.87927 50.0859 8.50716 49.4673 8.15921 48.8342C7.81126 48.2011 7.47298 47.5294 7.16369 46.8577C7.08637 46.6837 7.01388 46.5097 6.93172 46.3357C6.82057 46.0941 7.04287 46.6064 7.03804 46.587C7.00905 46.5 6.96555 46.4082 6.93172 46.3261C6.79158 45.9733 6.65626 45.6205 6.52578 45.2677C6.03286 43.8953 5.64141 42.4841 5.35629 41.0488C5.28863 40.7009 5.22097 40.3578 5.16781 40.0098C5.13882 39.8455 5.11466 39.686 5.09049 39.5217C5.07599 39.4299 5.07116 39.3333 5.05183 39.2414C5.09049 39.4154 5.11949 39.7924 5.07116 39.3961C4.98418 38.6712 4.91652 37.9463 4.87302 37.2166C4.79087 35.7813 4.8102 34.3363 4.91169 32.901C4.93585 32.5482 4.96968 32.1955 5.00834 31.8427C5.02767 31.6542 5.047 31.4657 5.07116 31.2773C5.08083 31.2048 5.09049 31.1371 5.09533 31.0646C5.12915 30.7553 5.00834 31.6445 5.07599 31.2144C5.18715 30.4895 5.30796 29.7646 5.45294 29.0446C5.75256 27.6045 6.13917 26.1837 6.61277 24.7919C6.84957 24.096 7.11536 23.4097 7.39082 22.7283C7.5503 22.3369 7.15886 23.2551 7.39566 22.7138C7.46331 22.564 7.53097 22.4094 7.59863 22.2596C7.75327 21.9116 7.91758 21.5685 8.08189 21.2302C8.72946 19.9109 9.45436 18.6351 10.2662 17.4076C10.6722 16.7939 11.0975 16.1995 11.5372 15.6147C11.8562 15.1894 11.2859 15.924 11.5517 15.6002C11.6725 15.4552 11.7885 15.3054 11.9045 15.1604C12.1461 14.8705 12.3878 14.5805 12.6391 14.2954C13.6056 13.1984 14.6446 12.1642 15.7561 11.2122C16.0074 10.9947 16.2635 10.7869 16.5197 10.5791C16.6646 10.4631 17.1914 10.1538 16.5873 10.5211C16.7468 10.4245 16.8918 10.2892 17.0416 10.1828C17.636 9.7479 18.2449 9.33712 18.8683 8.94568C19.4917 8.55424 20.1393 8.18696 20.7965 7.84867C21.1155 7.68436 21.4393 7.52489 21.7631 7.37024C21.9177 7.29776 22.0675 7.22527 22.2222 7.15761C22.3091 7.11895 22.401 7.08029 22.488 7.04163C22.5701 7.0078 22.9712 6.82416 22.5991 6.9933C22.227 7.16244 22.7441 6.93531 22.8504 6.89665C23.0292 6.82416 23.2128 6.7565 23.3965 6.68884C23.7638 6.55353 24.1359 6.42305 24.508 6.30223C25.2377 6.06543 25.9384 5.77064 26.673 5.55318C27.4076 5.33571 28.1856 5.15207 28.954 5.01675C29.1521 4.98293 29.3503 4.95876 29.5436 4.9201C29.8094 4.87178 29.2536 4.95393 29.2681 4.95393C29.36 4.95393 29.4711 4.92977 29.5629 4.9201C29.9544 4.87661 30.3458 4.84278 30.7373 4.82345C31.4863 4.77995 32.2354 4.78479 32.9844 4.82345C33.342 4.84278 33.6948 4.87178 34.0524 4.91527C34.1443 4.92493 34.2409 4.94426 34.3327 4.9491C34.3617 4.9491 33.7721 4.86211 34.0379 4.91044C34.2457 4.9491 34.4535 4.97326 34.6613 5.01192C35.3621 5.1424 36.0531 5.31154 36.7345 5.52418C37.0583 5.62567 37.3773 5.73682 37.6914 5.85763C37.7832 5.89146 38.3051 6.10893 37.8992 5.93495C37.4933 5.76098 38.107 6.03161 38.2133 6.08477C38.7981 6.36506 39.3683 6.67918 39.9144 7.03679C40.0546 7.12861 40.1995 7.22527 40.3349 7.32675C40.4267 7.38958 40.8326 7.69886 40.4992 7.44273C40.1657 7.1866 40.5716 7.50556 40.649 7.57322C40.7939 7.69403 40.9341 7.81968 41.0742 7.95016C41.3014 8.1628 41.5237 8.3851 41.7363 8.61706C41.8475 8.73788 41.9586 8.86353 42.0649 8.99401C42.4322 9.43378 41.8571 8.69438 42.0698 8.99401C42.4467 9.52076 42.7898 10.062 43.0749 10.6419C43.1378 10.7724 43.1909 10.9126 43.2586 11.043C42.9058 10.3761 43.1813 10.8594 43.2489 11.0575C43.3649 11.3813 43.4664 11.7099 43.5534 12.0434C43.6307 12.343 43.6935 12.6426 43.7467 12.9471C43.853 13.5802 43.7177 12.5605 43.7515 12.9761C43.766 13.1597 43.7853 13.3434 43.795 13.527C43.8192 13.904 43.8192 14.2857 43.8095 14.6627C43.7998 15.0155 43.6549 15.5084 43.7177 15.8467C43.7177 15.8515 43.8047 15.3199 43.7515 15.5857C43.7322 15.6872 43.7177 15.7887 43.7032 15.895C43.6742 16.0786 43.6355 16.2574 43.6017 16.4411C43.5099 16.8712 43.4036 17.2965 43.2828 17.7217C43.1813 18.0745 43.0701 18.4273 42.9396 18.7704C42.9106 18.8429 42.8768 18.9154 42.8526 18.9927C42.785 19.2054 42.988 18.6834 42.9831 18.6883C42.8865 18.7511 42.8092 19.0604 42.756 19.1715C42.4757 19.7224 42.0794 20.1912 41.7798 20.7276C41.7895 20.7131 42.1809 20.2444 41.9344 20.5198C41.8958 20.5633 41.8571 20.6116 41.8185 20.66C41.717 20.7808 41.6107 20.9016 41.5043 21.0224C41.2869 21.2592 41.0597 21.4864 40.8278 21.7038C40.6055 21.9116 40.3735 22.1049 40.1415 22.2982C39.8371 22.5495 40.6393 21.9358 40.1947 22.2547C40.0449 22.3611 39.8951 22.4722 39.7453 22.5737C39.233 22.9216 38.7014 23.2309 38.1505 23.5064C38.0055 23.5789 37.8557 23.6514 37.7059 23.719C37.6044 23.7674 37.1405 23.9655 37.5416 23.7964C37.9717 23.6127 37.3966 23.8495 37.3145 23.8833C37.1598 23.9413 37.0052 23.9993 36.8505 24.0525C36.2464 24.2603 35.6327 24.4246 35.0093 24.5502C34.8498 24.5841 34.6903 24.6131 34.5309 24.6372C34.4245 24.6566 33.8978 24.7339 34.3714 24.6662C34.845 24.5986 34.3182 24.6662 34.2119 24.6807C34.0331 24.7001 33.8543 24.7097 33.6707 24.7194C33.0617 24.7532 32.448 24.7435 31.8343 24.6856C31.7183 24.6759 31.2302 24.6131 31.6941 24.6759C32.1919 24.7387 31.5975 24.6566 31.5008 24.6372C31.2012 24.5792 30.9016 24.5116 30.6068 24.4294C30.3313 24.3521 30.0655 24.2603 29.7997 24.1636C29.7466 24.1443 29.6934 24.1201 29.6402 24.1008C29.3696 24.0042 30.1622 24.3424 29.906 24.212C29.7562 24.1346 29.6016 24.0718 29.4518 23.9945C29.2198 23.8737 28.9927 23.7432 28.7752 23.5982C28.6496 23.5161 28.5287 23.4291 28.4079 23.3421C28.1131 23.1391 28.867 23.7384 28.4563 23.3711C28.2436 23.1826 28.0358 22.9941 27.8377 22.7863C27.7459 22.6897 27.6589 22.5834 27.567 22.4867C27.1659 22.0469 27.828 22.883 27.5477 22.4674C27.3786 22.2161 27.2094 21.9696 27.0645 21.7087C26.9823 21.5637 26.905 21.4187 26.8325 21.2689C26.8035 21.2109 26.7793 21.1529 26.7503 21.0997C26.5764 20.747 26.7793 21.1239 26.818 21.2641C26.7793 21.0997 26.6923 20.9354 26.6343 20.7711C26.5957 20.6551 26.5232 20.1767 26.5329 20.5488C26.5425 20.9209 26.5329 20.3507 26.5329 20.2347C26.5329 20.1284 26.5425 20.0221 26.5474 19.9157C26.5474 19.476 26.4459 20.2782 26.5329 20.0027C26.5909 19.8288 26.615 19.6355 26.6682 19.4566C26.6633 19.476 26.76 19.1522 26.7697 19.1522C26.7842 19.1522 26.499 19.7031 26.7165 19.2827C26.8035 19.1135 26.8856 18.9492 26.9823 18.7849C27.0355 18.6931 27.0983 18.6013 27.1563 18.5143C27.1853 18.4708 27.2143 18.4273 27.2481 18.3838C27.3544 18.2388 27.3109 18.2968 27.1176 18.5529C27.0983 18.4853 27.8473 17.7507 27.9053 17.7749C27.9488 17.7942 27.4656 18.0649 27.7942 17.8764C27.8812 17.8281 27.9682 17.7652 28.0551 17.7121C28.1421 17.6589 28.2339 17.6202 28.3258 17.5671C28.6351 17.3931 28.2484 17.7024 28.1663 17.6299C28.1856 17.6492 28.6447 17.4898 28.6689 17.4849C29.186 17.3448 28.2774 17.4608 28.693 17.4849C28.7849 17.4898 28.896 17.4898 28.9927 17.4849C29.3455 17.4753 28.867 17.6009 28.8042 17.4511C28.8235 17.4898 29.3696 17.6106 29.4083 17.6251C30.5971 18.0552 32.1049 17.1418 32.3803 15.9385C32.6896 14.5805 31.9696 13.4255 30.6938 12.9664V12.9568Z" fill="white"/>
</svg>
