<svg width="747" height="350" viewBox="0 0 747 350" fill="none" xmlns="http://www.w3.org/2000/svg">
<mask id="mask0_41_263" style="mask-type:alpha" maskUnits="userSpaceOnUse" x="0" y="0" width="747" height="350">
<path d="M239.322 152.45C240.271 151.376 241.282 150.427 242.336 149.479C244.106 147.877 240.376 150.659 242.42 149.458C243.01 149.1 243.579 148.699 244.19 148.362C244.591 148.13 244.991 147.92 245.413 147.709L246.045 147.393C247.078 146.929 246.888 146.992 245.434 147.625C245.539 147.077 249.543 146.318 250.112 146.192C250.681 146.065 251.271 145.981 251.84 145.854C253.358 145.517 249.101 146.044 251.503 145.897C252.936 145.812 254.348 145.707 255.781 145.728C256.498 145.728 257.214 145.77 257.931 145.833C258.226 145.854 260.48 145.812 258.689 145.875C256.898 145.939 259.069 145.96 259.427 146.023C260.375 146.192 261.323 146.423 262.251 146.655C263.663 147.035 265.011 147.498 266.381 148.004C268.299 148.699 265.918 147.772 265.854 147.772C266.17 147.688 267.498 148.573 267.793 148.72C269.121 149.416 270.385 150.217 271.629 151.06C272.05 151.355 274.305 152.619 272.071 151.334C272.746 151.713 273.336 152.387 273.905 152.893C275.106 153.968 276.244 155.085 277.34 156.265C277.888 156.855 278.414 157.466 278.941 158.077C279.004 158.14 280.606 160.227 279.616 158.899C278.625 157.571 280.185 159.721 280.227 159.784C280.69 160.438 281.154 161.112 281.575 161.807C282.608 163.409 283.556 165.053 284.441 166.718C285.074 167.919 285.685 169.141 286.254 170.384C286.444 170.806 287.708 173.25 286.486 170.869C286.844 171.586 287.097 172.407 287.392 173.166C288.551 176.222 289.52 179.362 290.321 182.523C290.974 185.052 291.459 187.644 291.859 190.236C291.923 190.721 291.965 191.226 292.07 191.69C291.333 188.318 291.859 190.11 291.965 190.995C292.07 191.943 292.176 192.891 292.26 193.861C292.513 196.558 292.66 199.277 292.702 201.995C292.745 204.714 292.681 207.601 292.492 210.404C292.407 211.689 292.26 212.975 292.133 214.26C291.881 216.958 292.555 211.9 292.091 214.597C291.923 215.651 291.754 216.705 291.543 217.758C290.974 220.73 290.216 223.659 289.267 226.525C289.015 227.326 288.719 228.127 288.424 228.907C288.277 229.286 287.16 231.899 288.214 229.539C287.518 231.119 286.76 232.658 285.938 234.175C285.179 235.566 284.357 236.915 283.493 238.221C283.198 238.685 280.817 242.225 282.355 239.928C280.627 242.499 278.161 244.796 275.886 246.883C275.295 247.409 274.705 247.936 274.094 248.442C273.736 248.758 271.776 250.57 273.757 248.758C272.619 249.791 271.165 250.634 269.858 251.456C268.741 252.151 267.625 252.825 266.465 253.437C265.77 253.816 265.075 254.153 264.358 254.511C263.894 254.743 263.41 254.954 262.946 255.165C264.274 254.617 264.379 254.574 263.304 254.996C260.628 255.986 257.909 256.85 255.107 257.419C254.411 257.567 253.526 257.841 252.81 257.82C255.128 257.883 253.969 257.693 253.294 257.736C251.482 257.841 249.67 257.967 247.836 257.925C247.056 257.904 246.277 257.862 245.476 257.799L244.696 257.736C243.495 257.588 243.664 257.63 245.181 257.799C244.148 258.01 242.378 257.272 241.366 257.019C239.849 256.64 238.374 256.176 236.899 255.649C236.772 255.607 234.391 254.68 235.993 255.333C237.489 255.944 234.686 254.701 234.412 254.574C231.82 253.289 229.439 251.73 227.078 250.107C224.887 248.611 228.722 251.582 226.72 249.833C226.13 249.306 225.519 248.821 224.929 248.294C223.559 247.072 222.253 245.766 221.009 244.417C220.145 243.469 219.176 242.499 218.459 241.424C219.934 243.658 218.501 241.424 218.227 241.024C217.785 240.371 217.342 239.717 216.921 239.064C216.204 237.968 215.551 236.83 214.919 235.671C214.539 234.976 214.181 234.28 213.844 233.585C213.57 233.037 213.317 232.489 213.085 231.941C213.549 233.079 213.549 233.079 213.085 231.941C211.926 228.843 210.915 225.703 210.198 222.458C210.009 221.573 209.819 220.688 209.671 219.803C209.608 219.423 209.208 216.431 209.503 219.023C209.292 217.232 209.123 215.419 209.06 213.607C208.892 209.645 209.102 205.746 209.461 201.806C209.735 198.792 209.039 203.976 209.566 201.005C209.777 199.803 209.966 198.602 210.219 197.422C210.578 195.631 210.999 193.882 211.484 192.112C211.99 190.257 212.559 188.424 213.212 186.632C213.465 185.895 213.739 185.157 214.034 184.42C214.266 183.851 215.024 181.532 214.16 184.019C215.235 180.837 217.11 177.76 218.817 174.873C219.766 173.293 220.756 171.733 221.81 170.237C222.253 169.584 222.737 168.951 223.18 168.319C224.739 166.149 221.747 170.005 223.454 167.961C225.624 165.348 227.9 162.819 230.387 160.501C231.673 159.3 233.042 157.888 234.539 156.939C232.284 158.393 234.496 157.002 234.897 156.707C235.529 156.244 236.182 155.801 236.815 155.38C239.87 153.357 243.095 151.629 246.445 150.175C251.524 147.962 253.062 140.164 250.218 135.76C246.825 130.513 241.219 129.606 235.803 131.988C207.564 144.316 190.368 174.662 188.092 204.545C186.869 220.624 190.515 237.947 199.767 251.329C208.47 263.931 221.367 274.005 236.477 277.524C268.425 284.963 299.067 262.583 309.267 232.953C317.043 210.362 314.682 183.808 305.368 162.039C299.657 148.657 289.668 135.57 276.075 129.48C262.483 123.39 245.961 122.631 232.853 130.576C229.713 132.472 226.741 134.875 224.318 137.636C220.672 141.766 219.934 148.51 224.318 152.535C228.301 156.202 235.339 156.96 239.217 152.535L239.322 152.45Z" fill="#FF48A0"/>
<path d="M333.839 138.078C337.337 180.352 337.948 222.816 335.651 265.175C335.356 270.696 340.709 275.965 346.188 275.712C352.152 275.438 356.409 271.075 356.725 265.175C359.001 222.816 358.39 180.352 354.912 138.078C354.47 132.599 350.382 127.267 344.376 127.541C339.065 127.773 333.354 132.199 333.839 138.078Z" fill="#FF48A0"/>
<path d="M350.888 149.711C357.294 147.92 363.743 146.171 370.339 145.117C370.992 145.012 371.646 144.906 372.299 144.822C369.96 145.138 373.226 144.759 373.437 144.738C374.764 144.611 376.071 144.527 377.399 144.485C379.064 144.421 380.707 144.421 382.372 144.485C383.025 144.506 383.7 144.548 384.353 144.611C384.69 144.632 387.388 144.948 385.723 144.717C383.953 144.464 386.566 144.885 386.692 144.906C387.219 145.012 387.746 145.117 388.273 145.222C389.579 145.496 390.865 145.833 392.15 146.234C393.436 146.634 394.742 146.992 395.902 147.583C395.607 147.435 393.878 146.592 395.564 147.477C396.26 147.835 396.976 148.173 397.672 148.573C398.831 149.205 399.906 149.943 401.022 150.659C402.666 151.734 401.023 150.554 400.77 150.428C401.402 150.744 402.055 151.502 402.561 151.987C403.341 152.704 404.015 153.504 404.753 154.263C406.565 156.096 403.657 152.451 405.132 154.727C405.596 155.443 406.08 156.117 406.502 156.855C407.155 157.951 407.661 159.089 408.272 160.206C409.073 161.66 407.45 157.867 408.356 160.395C408.546 160.922 408.757 161.449 408.925 161.976C409.895 164.821 410.611 167.729 411.138 170.68C411.37 171.965 411.602 173.251 411.749 174.536C411.433 171.839 411.749 174.768 411.791 175.189C411.854 175.758 411.918 176.348 411.96 176.917C412.255 179.994 412.487 183.092 412.697 186.19C413.583 198.371 414.341 210.551 414.636 222.774C414.973 236.641 414.699 250.528 414.025 264.374C413.751 269.895 419.062 275.164 424.562 274.911C430.505 274.637 434.804 270.275 435.099 264.374C436.363 238.263 435.689 212.258 433.771 186.19C432.781 172.808 431.832 158.857 425.068 146.929C418.303 135.001 406.396 127.52 393.415 124.802C377.146 121.409 360.898 124.991 345.219 129.396C339.908 130.892 336.094 136.919 337.864 142.356C339.634 147.793 345.135 151.313 350.825 149.711H350.888Z" fill="#FF48A0"/>
<path d="M243.727 133.716C236.962 144.274 240.397 158.962 249.29 167.202C258.184 175.442 269.859 177.613 281.365 179.804C292.871 181.996 306.738 184.188 318.392 179.425C327.306 175.8 335.04 169.773 341.573 162.735C347.642 156.181 354.723 147.498 354.892 138.057C354.997 132.536 349.981 127.267 344.355 127.52C338.728 127.773 333.923 132.156 333.818 138.057C333.776 140.017 334.471 135.802 333.986 136.919C333.818 137.319 333.712 137.825 333.586 138.247C333.038 140.249 334.661 136.182 333.881 137.615C333.502 138.289 333.186 138.984 332.806 139.659C332.09 140.923 331.289 142.124 330.467 143.304C330.193 143.684 328.844 145.623 329.772 144.274C330.699 142.925 329.856 144.168 329.582 144.485C329.224 144.906 328.865 145.349 328.507 145.77C326.21 148.446 323.723 150.954 321.068 153.293C320.352 153.926 319.614 154.516 318.876 155.127C317.443 156.307 320.457 154.031 318.497 155.401C317.022 156.433 315.526 157.445 313.945 158.33C313.292 158.709 312.639 159.047 311.964 159.384C311.69 159.51 311.1 159.7 310.826 159.911C312.238 158.773 312.617 159.215 311.669 159.531C310.953 159.763 310.257 160.016 309.541 160.206C308.908 160.374 308.297 160.522 307.644 160.669C306.801 160.859 305.558 161.07 307.117 160.859C304.715 161.196 302.27 161.217 299.847 161.133C298.709 161.091 297.55 161.028 296.412 160.922C295.758 160.859 295.105 160.796 294.452 160.733L293.461 160.606C294.452 160.754 294.578 160.754 293.798 160.648C288.804 159.784 283.831 158.878 278.836 157.909C276.897 157.529 274.98 157.108 273.083 156.56C272.008 156.265 270.933 155.928 269.859 155.548C269.458 155.401 269.079 155.253 268.678 155.106C267.498 154.705 270.259 155.97 268.51 155C267.414 154.389 266.318 153.862 265.264 153.167C264.927 152.935 264.59 152.703 264.232 152.472C266.086 153.673 264.548 152.682 264.126 152.282C263.747 151.945 263.389 151.586 263.052 151.207C261.766 149.816 262.462 151.165 263.073 151.334C262.546 151.186 261.85 149.311 261.577 148.784C260.607 146.971 261.872 149.121 261.766 149.268C261.829 149.163 261.303 147.772 261.239 147.519C261.134 147.077 260.565 145.665 261.092 147.14C261.577 148.468 261.092 146.971 261.092 146.402C261.092 146.044 261.239 145.264 261.155 144.99C261.324 145.517 260.67 147.119 261.155 145.707C261.155 145.749 261.471 144.379 261.577 144.358L261.092 145.58C261.324 145.159 261.555 144.737 261.829 144.337C264.801 139.68 262.946 132.494 258.057 129.923C252.831 127.162 246.825 128.742 243.643 133.695L243.727 133.716Z" fill="#FF48A0"/>
<path d="M426.037 152.662C440.62 170.364 472.821 168.446 490.249 155.17C501.018 147.246 505.401 134.665 507.298 121.599C509.848 102.274 509.3 80.7578 501.524 63.0769C498.552 56.8811 492.082 48.6834 485.613 49.2313C481.208 50.2218 477.584 55.0477 476.846 59.6629C474.296 71.106 473.411 82.9074 473.601 94.7509C473.896 118.838 478.237 143.495 483.021 168.278C490.86 212.47 503.989 259.211 495.349 304.921C492.167 319.44 484.053 334.298 470.819 342.39C456.657 351.789 436.258 351.578 424.204 338.302C418.092 331.937 414.362 322.707 415.795 313.624L415.858 316.216C415.374 313.013 415.795 309.62 416.512 306.564C423.466 281.824 447.237 265.597 467.826 253.016C475.708 248.379 484.074 246.799 491.429 243.048C505.823 236.304 519.963 229.666 529.91 217.106C539.499 205.494 545.463 190.7 549.256 175.253L565.63 179.236C561.352 196.601 554.524 213.755 542.913 227.853C537.033 235.019 529.868 241.235 522.092 246.124C514.421 251.077 505.991 254.617 499.079 258.073C494.759 260.307 490.312 261.846 486.456 263.236C474.781 267.198 465.93 273.963 456.425 280.981C450.251 285.849 444.477 291.18 439.988 297.039C436.237 302.055 432.76 307.639 432.507 313.624L432.464 313.308L432.528 315.9C431.685 323.128 440.747 330.863 447.869 330.399C462.474 330.357 472.968 314.846 475.139 300.558C476.235 295.121 476.762 289.347 476.867 283.383C477.584 213.881 444.793 147.794 450.019 74.8572C451.536 59.1782 453.538 41.3076 467.531 31.3607C479.986 21.5613 497.161 23.2683 508.794 33.3627C537.307 56.1014 537.412 114.792 525 146.298C513.789 175.401 479.649 190.068 450.167 185.073C435.225 182.798 420.221 175.464 411.939 161.955L426.016 152.683L426.037 152.662Z" fill="#FF48A0"/>
<path fill-rule="evenodd" clip-rule="evenodd" d="M569.266 108.655C569.359 108.254 569.406 107.835 569.402 107.404C569.372 104.495 566.989 102.16 564.08 102.19C552.946 102.304 544.021 111.436 544.135 122.559C544.249 133.692 553.38 142.618 564.504 142.504C575.637 142.39 584.563 133.258 584.449 122.135C584.39 116.37 581.265 110.593 575.353 108.842C573.305 108.236 571.257 108.202 569.266 108.655ZM561.442 113.155C557.487 114.381 554.627 118.094 554.671 122.451C554.726 127.755 559.082 132.022 564.396 131.968C569.7 131.913 573.967 127.557 573.912 122.243C573.887 119.789 572.692 119.044 572.36 118.945C572.242 118.91 570.213 118.423 566.994 122.759C565.259 125.095 561.96 125.583 559.623 123.848C557.287 122.114 556.799 118.814 558.534 116.477C559.445 115.251 560.418 114.137 561.442 113.155Z" fill="#FF48A0"/>
<path d="M668.302 306.142C671.885 304.224 675.214 300.663 677.132 297.144C681.768 288.693 680.483 279.336 676.395 270.97C674.182 266.439 670.979 262.877 666.363 260.77C662.402 258.958 658.208 257.946 653.803 258.115C644.994 258.431 637.05 262.098 630.243 267.514C624.131 272.382 619.284 279.336 617.24 286.923C615.196 294.509 615.913 303.676 617.367 311.495C619.748 324.329 627.398 335.877 638.63 342.642C660.421 355.75 690.388 349.976 710.323 336.067C739.321 315.836 752.071 277.144 744.358 243.068C737.951 214.745 713 181.469 680.019 192.133C675.889 193.481 671.885 195.357 668.197 197.654L682.611 212.068C693.844 189.393 705.076 166.717 716.308 144.042C717.868 140.881 719.448 137.72 721.008 134.538C722.715 131.103 723.01 127.33 721.008 123.895C719.259 120.903 715.508 118.353 711.904 118.669C705.898 119.217 699.913 120.123 693.928 121.05C690.809 121.535 687.711 122.02 684.592 122.483C683.012 122.715 681.431 122.968 679.851 123.2C679.05 123.326 678.249 123.432 677.448 123.537C676.985 123.6 676.521 123.664 676.057 123.727C674.54 123.937 676.374 123.516 676.774 123.642C675.636 123.305 673.065 124.127 671.864 124.275C670.115 124.485 668.344 124.675 666.574 124.865C663.202 125.202 659.83 125.476 656.459 125.623C653.087 125.771 649.968 125.834 646.723 125.75C645.226 125.708 643.751 125.623 642.255 125.518C641.538 125.455 640.822 125.392 640.105 125.328C639.705 125.286 639.283 125.202 638.904 125.181C639.241 125.181 641.37 125.56 639.937 125.307C636.986 124.802 634.099 124.169 631.275 123.158C628.746 122.273 633.067 124.106 631.191 123.137C630.601 122.821 630.011 122.547 629.442 122.209C628.873 121.872 628.346 121.535 627.798 121.177C626.007 120.039 629.779 122.884 627.904 121.219L630.622 125.876C630.053 124.359 629.653 122.863 629.252 121.282C628.789 119.491 629.294 123.537 629.316 121.83C629.316 121.198 629.358 120.481 629.316 119.849C629.21 118.332 628.704 122.631 629.252 120.755C629.8 118.88 628.156 122.884 628.768 121.746C629.547 120.313 628.114 122.547 627.84 122.842C629.126 121.472 625.923 124.106 626.808 123.621C624.426 124.928 623.057 124.865 621.139 124.422C622.804 124.802 618.652 123.263 619.832 123.895C621.012 124.528 617.641 121.809 619.01 123.347C619.896 124.338 617.556 120.84 618.441 122.673C618.631 123.095 619.369 124.633 618.652 122.884C617.893 120.987 618.715 123.158 618.842 123.621C618.989 124.127 619.031 125.623 619.369 126.003C619.348 125.982 619.158 123.706 619.221 124.886C619.242 125.371 619.305 125.855 619.327 126.34C619.369 127.077 619.369 127.815 619.39 128.553C619.432 129.838 619.558 131.145 619.643 132.43C619.811 134.938 619.98 137.446 620.148 139.954C620.507 145.243 620.865 150.512 621.139 155.801C621.729 166.844 622.003 177.908 621.392 188.95C621.244 191.69 621.033 194.43 620.76 197.169C620.633 198.434 620.486 199.677 620.338 200.941C620.064 203.302 620.633 198.96 620.359 200.731C620.254 201.405 620.169 202.058 620.064 202.733C619.242 207.917 618.104 213.059 616.545 218.096C615.786 220.54 614.901 222.9 613.953 225.282C613.468 226.483 614.922 223.09 614.374 224.249C614.269 224.502 614.163 224.734 614.037 224.987C613.784 225.556 613.51 226.125 613.236 226.694C612.688 227.811 612.119 228.906 611.529 230.002C610.328 232.152 609.021 234.238 607.588 236.24C607.441 236.451 607.272 236.662 607.125 236.872C606.176 238.221 607.736 236.008 607.82 235.987C607.567 236.029 606.809 237.252 606.661 237.42C605.86 238.369 605.038 239.275 604.195 240.181C603.353 241.087 602.446 241.951 601.519 242.773C601.119 243.131 600.718 243.49 600.318 243.827C600.002 244.101 597.958 245.723 599.496 244.543C601.034 243.363 599.201 244.754 598.801 245.028C598.358 245.344 597.894 245.66 597.431 245.976C596.272 246.756 595.07 247.494 593.848 248.189C592.752 248.8 591.656 249.39 590.519 249.938C589.907 250.233 589.254 250.507 588.643 250.802C587.631 251.308 589.886 250.296 589.781 250.339C589.317 250.465 588.833 250.718 588.369 250.908C585.608 251.982 582.763 252.846 579.876 253.563C578.57 253.879 576.778 253.9 575.577 254.49C576.947 253.795 577.959 254.216 576.525 254.216C574.713 254.216 579.455 254.869 577.727 254.406C577.39 254.322 575.935 254.195 575.767 253.858C575.851 254.026 578.654 255.333 577.01 254.343C576.652 254.132 576.294 253.921 575.935 253.71C574.945 253.12 574.966 252.256 576.926 254.511C576.715 254.279 576.42 254.09 576.209 253.879C575.767 253.415 573.849 251.16 575.24 252.952C576.631 254.743 574.987 252.53 574.65 251.961C574.144 251.16 573.702 250.317 573.28 249.453C573.09 249.053 572.922 248.568 572.69 248.189C573.048 248.758 573.723 250.802 573.112 249.179C572.732 248.168 572.353 247.156 572.037 246.124C571.383 244.059 570.836 241.93 570.372 239.802C569.866 237.505 569.487 235.165 569.129 232.847C568.812 230.824 569.297 234.28 569.213 233.564C569.15 232.953 569.065 232.32 568.981 231.709C568.833 230.445 568.707 229.201 568.602 227.937C566.895 209.308 568.033 190.636 568.538 171.986C568.581 170.679 568.602 169.352 568.602 168.045C568.602 162.524 563.755 157.255 558.065 157.508C552.375 157.761 547.528 162.144 547.528 168.045C547.528 178.73 546.748 189.393 546.622 200.077C546.453 214.724 546.875 229.581 549.741 243.974C552.185 256.239 557.622 270.127 570.604 274.321C578.317 276.828 587.294 273.857 594.544 270.991C602.72 267.746 610.096 263.468 616.629 257.504C639.747 236.388 643.14 201.826 642.782 172.365C642.613 157.993 641.264 143.726 640.506 129.375C639.979 119.428 637.956 107.921 627.124 104.297C622.277 102.674 616.692 104.254 613.131 107.795C609.569 111.335 608.199 116.119 608.221 120.861C608.221 126.235 609.822 133.568 614.1 137.088C617.788 140.101 621.708 142.145 626.197 143.726C634.036 146.487 642.803 147.013 651.064 146.929C668.955 146.76 686.679 143.304 704.339 140.733C705.287 140.607 706.214 140.48 707.162 140.333C707.12 140.333 704.296 140.712 705.982 140.502C706.341 140.459 706.678 140.417 707.036 140.375C708.659 140.164 710.281 139.996 711.925 139.848C708.89 134.559 705.856 129.269 702.821 124.001C691.589 146.676 680.356 169.352 669.124 192.027C667.565 195.188 665.984 198.349 664.425 201.531C662.401 205.599 662.486 211.015 666.068 214.302C669.461 217.4 674.772 218.496 678.839 215.946C680.272 215.061 681.705 214.218 683.223 213.48C683.37 213.396 684.466 212.911 684.466 212.89C684.466 212.975 682.422 213.628 683.496 213.312C684.318 213.059 685.119 212.701 685.941 212.448C687.311 212.026 688.786 211.879 690.135 211.436C691.167 211.099 688.786 211.584 688.807 211.584C689.186 211.584 689.608 211.499 689.987 211.457C690.767 211.394 691.526 211.352 692.305 211.352C692.98 211.352 693.633 211.352 694.307 211.415C694.581 211.415 694.876 211.457 695.15 211.478C696.857 211.563 694.139 211.352 694.033 211.31C695.34 211.731 696.794 211.837 698.122 212.237C698.754 212.427 699.344 212.658 699.976 212.869C701.641 213.417 697.595 211.71 699.787 212.785C701.072 213.417 702.315 214.07 703.538 214.808C704.107 215.166 704.676 215.546 705.224 215.925C706.067 216.515 707.015 217.864 705.203 215.841C706.109 216.852 707.352 217.653 708.343 218.58C709.333 219.507 710.345 220.603 711.293 221.657C711.778 222.205 712.22 222.753 712.684 223.322C712.937 223.638 713.843 224.755 712.831 223.49C711.693 222.1 713 223.743 713.147 223.933C714.918 226.378 716.498 228.949 717.91 231.604C718.627 232.953 719.322 234.343 719.954 235.734C720.06 235.966 720.355 236.872 720.502 236.957C720.502 236.957 719.701 234.912 720.081 235.966C720.397 236.809 720.734 237.61 721.05 238.453C722.188 241.488 723.115 244.585 723.874 247.725C724.232 249.243 724.548 250.76 724.822 252.298C724.949 253.057 725.054 253.837 725.202 254.595C725.412 255.755 725.054 253.373 725.054 253.436C724.991 253.9 725.181 254.574 725.244 255.08C725.56 258.178 725.686 261.318 725.56 264.437C725.497 266.102 725.37 267.746 725.244 269.41C725.181 270.464 725.075 271.518 724.97 272.571C724.928 273.014 724.864 273.478 724.822 273.92C724.991 272.424 724.928 273.183 724.759 274.215C724.085 278.409 723.094 282.539 721.788 286.565C721.177 288.461 720.481 290.316 719.765 292.17C719.048 294.025 720.376 290.885 719.512 292.739C719.048 293.73 718.584 294.741 718.079 295.732C716.329 299.188 714.349 302.539 712.094 305.7C711.799 306.121 711.483 306.543 711.188 306.964C710.513 307.933 711.63 306.395 711.672 306.353C711.23 307.09 710.555 307.744 709.986 308.397C708.869 309.704 707.689 310.989 706.467 312.211C705.561 313.118 704.634 313.982 703.685 314.846C703.201 315.267 702.716 315.689 702.231 316.089C701.831 316.426 699.913 317.944 701.388 316.806C702.863 315.668 701.093 317.016 700.693 317.29C700.166 317.67 699.66 318.028 699.133 318.386C697.995 319.145 696.857 319.882 695.677 320.599C693.422 321.948 691.083 323.17 688.681 324.245C688.428 324.35 688.175 324.455 687.943 324.582C686.426 325.277 688.891 324.181 688.955 324.16C688.365 324.35 687.774 324.624 687.184 324.856C685.92 325.34 684.655 325.783 683.37 326.183C680.925 326.963 678.418 327.595 675.91 328.101C674.793 328.312 673.655 328.417 672.559 328.67C675.91 327.933 673.971 328.48 673.044 328.586C672.285 328.67 671.505 328.733 670.726 328.775C668.365 328.923 666.005 328.944 663.645 328.797C662.507 328.733 661.327 328.459 660.189 328.48C660.189 328.48 663.118 328.965 661.537 328.649C661.306 328.607 661.053 328.565 660.821 328.523C660.189 328.417 659.557 328.291 658.924 328.143C656.648 327.637 654.499 326.9 652.328 326.141C650.727 325.572 654.773 327.3 652.897 326.373C652.412 326.141 651.907 325.909 651.422 325.657C650.389 325.13 649.378 324.54 648.408 323.907C647.945 323.612 647.502 323.296 647.06 323.001C646.87 322.875 646.68 322.727 646.491 322.58C645.479 321.884 648.43 324.202 647.523 323.359C646.617 322.517 645.753 321.842 644.931 320.999C644.152 320.219 643.456 319.377 642.719 318.534C641.644 317.311 644.299 320.831 643.056 318.934C642.697 318.386 642.318 317.859 641.981 317.311C641.37 316.321 640.801 315.309 640.274 314.256C640.021 313.75 639.831 313.097 639.515 312.633C639.452 312.549 640.379 314.951 640.084 313.939C639.958 313.518 639.768 313.097 639.621 312.696C638.736 310.23 638.103 307.659 637.661 305.088C637.197 302.328 637.766 306.521 637.64 304.899C637.598 304.267 637.513 303.655 637.471 303.023C637.345 301.401 637.303 299.757 637.324 298.113C637.324 296.638 637.45 295.12 637.408 293.645C637.366 292.297 636.923 295.963 637.26 294.636C637.324 294.341 637.366 294.046 637.429 293.751C637.598 292.971 637.808 292.191 638.061 291.433C638.145 291.159 638.483 290.526 638.462 290.295C638.462 290.295 637.471 292.36 637.977 291.412C638.314 290.8 638.588 290.147 638.925 289.515C639.262 288.883 639.642 288.293 640.042 287.703C640.211 287.45 640.4 287.197 640.569 286.944C641.707 285.195 639.389 288.25 640.232 287.386C641.222 286.354 642.128 285.258 643.182 284.267C643.646 283.846 644.489 283.382 644.805 282.856C644.805 282.856 642.971 284.162 643.899 283.572C644.32 283.298 644.721 282.982 645.142 282.687C646.322 281.907 647.544 281.191 648.809 280.58C649.083 280.453 649.357 280.348 649.61 280.2C650.79 279.589 647.46 280.959 648.725 280.58C649.462 280.348 650.179 280.053 650.937 279.842C651.57 279.652 652.223 279.484 652.876 279.357C653.15 279.294 653.445 279.273 653.698 279.21C654.983 278.894 651.232 279.399 652.56 279.357C653.888 279.315 655.321 279.463 656.606 279.357C656.606 279.357 654.225 278.809 655.11 279.168C655.426 279.294 655.805 279.315 656.143 279.378C656.543 279.484 657.512 279.968 657.892 279.905C657.07 280.053 655.658 278.725 657.259 279.715C657.533 279.884 657.871 280.095 658.166 280.242C659.514 280.917 657.407 279.442 656.964 279.041C656.037 278.177 656.88 278.957 657.091 279.357C657.365 279.884 657.681 280.39 657.955 280.917C658.145 281.296 658.313 281.675 658.503 282.034C659.114 283.108 658.166 281.423 658.229 281.317C658.123 281.507 659.009 283.698 659.093 284.015C659.156 284.31 659.177 284.71 659.304 284.963C659.746 285.932 659.198 282.392 659.219 284.267C659.219 284.815 659.261 285.363 659.261 285.932C659.261 286.164 659.135 286.712 659.177 286.965C659.177 286.881 659.725 284.626 659.367 285.384C659.177 285.785 659.03 286.501 658.945 286.965C658.756 288.103 660.252 284.605 659.156 286.417C658.924 286.796 658.65 287.197 658.44 287.597C657.576 289.241 660.02 285.932 659.093 286.754C658.545 287.26 657.976 287.829 657.47 288.377C656.69 289.178 660.147 286.522 658.271 287.724C658.102 287.829 657.934 287.934 657.765 288.019C652.897 290.632 650.979 297.776 653.993 302.433C657.175 307.364 663.202 309.008 668.408 306.205L668.302 306.142Z" fill="#FF48A0"/>
<path d="M133.848 56.5012C113.996 49.3571 93.3227 69.9674 94.6925 89.545C95.6829 103.728 106.494 117.426 119.159 123.39C143.5 134.854 174.015 127.246 193.171 109.249C204.403 98.7121 209.756 84.7191 211.674 69.6934C213.465 55.6371 210.409 40.5482 202.022 28.9576C184.025 4.09045 151.739 -3.22219 122.657 1.2244C115.345 2.34132 108.622 4.70159 101.647 7.04079C94.6714 9.37999 87.422 12.2882 80.6783 15.7443C67.9708 22.2561 56.2327 31.0439 46.1593 41.1594C26.0338 61.3271 11.7879 87.4376 4.89671 115.044C-1.99445 142.651 -1.88908 172.429 6.98302 199.551C11.4718 213.27 17.9836 226.399 26.6871 237.947C28.1201 239.865 29.5953 241.762 31.0915 243.616C31.6394 244.29 32.1874 244.944 32.7353 245.597C33.0092 245.934 33.2832 246.271 33.5782 246.587C34.8427 247.957 32.7985 245.091 33.2832 246.103C34.1051 247.747 35.9596 249.601 37.2029 251.076C38.2777 252.362 39.3946 253.605 40.5537 254.806C45.2532 259.695 50.627 264.016 56.2537 267.767C78.6342 282.666 106.747 287.323 133.047 283.003C159.663 278.641 184.13 262.899 197.849 239.465C201.537 233.142 204.445 226.272 206.595 219.276C208.238 214.007 204.656 207.559 199.24 206.315C193.529 205.009 188.029 208.043 186.279 213.67C185.795 215.208 185.289 216.726 184.741 218.243C184.488 218.939 184.214 219.634 183.94 220.308C183.793 220.667 183.582 221.088 183.477 221.467C183.708 220.667 184.383 219.444 183.666 220.962C182.36 223.828 180.948 226.631 179.346 229.328C178.588 230.592 177.787 231.857 176.965 233.079C176.586 233.648 176.185 234.217 175.785 234.765C175.49 235.165 173.762 237.484 174.879 236.029C175.995 234.575 174.562 236.409 174.267 236.767C173.783 237.357 173.277 237.947 172.771 238.516C171.76 239.654 170.727 240.771 169.673 241.867C167.692 243.869 165.606 245.766 163.414 247.557C163.119 247.789 162.824 248.021 162.529 248.252C161.223 249.306 163.246 247.683 163.33 247.641C162.782 247.978 162.276 248.421 161.75 248.8C160.548 249.664 159.305 250.507 158.062 251.308C155.638 252.846 153.13 254.258 150.559 255.544C149.316 256.155 148.051 256.745 146.787 257.314C144.553 258.326 148.642 256.577 146.998 257.23C146.218 257.525 145.438 257.841 144.659 258.136C139.264 260.138 133.658 261.613 127.989 262.583C127.336 262.688 126.704 262.793 126.05 262.899C125.692 262.962 125.313 263.004 124.933 263.067C124.997 263.067 127.778 262.73 126.071 262.899C124.596 263.046 123.1 263.215 121.604 263.32C118.801 263.531 115.998 263.615 113.195 263.573C110.392 263.531 107.4 263.383 104.513 263.088C103.86 263.025 103.206 262.962 102.553 262.878C99.8134 262.561 104.344 263.173 102.574 262.878C101.099 262.646 99.6237 262.414 98.1486 262.119C92.4797 261.023 86.9162 259.443 81.5424 257.356C80.9312 257.124 80.3412 256.872 79.73 256.64C78.5077 256.176 81.9006 257.609 80.7205 257.061C80.4676 256.935 80.2147 256.829 79.9618 256.724C78.6131 256.134 77.2644 255.481 75.9578 254.827C73.3236 253.5 70.7525 252.046 68.2658 250.444C67.17 249.749 66.1163 249.032 65.0415 248.294C64.4304 247.873 63.8403 247.43 63.2502 246.988C63.0184 246.819 62.8077 246.651 62.597 246.482C61.5643 245.745 64.5779 248.063 63.2081 246.946C60.9953 245.133 58.8458 243.258 56.8016 241.235C54.7575 239.212 52.8187 237.062 51.0274 234.828C50.7956 234.533 50.5849 234.238 50.332 233.943C50.2266 233.817 51.8704 235.819 51.1328 234.955C50.1423 233.796 49.2572 232.531 48.2457 231.372C47.1287 230.066 46.0329 228.738 44.9581 227.389C43.483 225.556 45.9275 228.717 44.8528 227.242C44.347 226.567 43.8412 225.872 43.3354 225.198C42.345 223.828 41.3966 222.437 40.4483 221.025C38.7203 218.412 37.0976 215.714 35.5803 212.954C34.0629 210.193 32.5878 207.264 31.239 204.334C30.9019 203.576 30.5858 202.817 30.2275 202.058C29.7428 201.005 30.7122 203.239 30.6911 203.154C30.5647 202.775 30.375 202.374 30.2275 202.016C29.6164 200.478 29.0263 198.939 28.4573 197.401C26.3078 191.416 24.6008 185.263 23.3574 179.004C23.0624 177.486 22.7673 175.99 22.5355 174.473C22.4091 173.756 22.3037 173.061 22.1984 172.344C22.1351 171.944 22.1141 171.522 22.0298 171.122C22.1984 171.881 22.3248 173.524 22.1141 171.796C21.7347 168.635 21.4397 165.474 21.25 162.292C20.8918 156.033 20.9761 149.732 21.4186 143.473C21.524 141.935 21.6715 140.396 21.8401 138.858C21.9244 138.036 22.0087 137.214 22.1141 136.392C22.1562 136.076 22.1984 135.781 22.2194 135.465C22.3669 134.116 21.8401 137.994 22.1351 136.118C22.6198 132.957 23.1467 129.796 23.7789 126.656C25.0855 120.376 26.7714 114.18 28.8366 108.111C29.8692 105.076 31.0283 102.084 32.2295 99.1125C32.9249 97.4055 31.218 101.41 32.2506 99.0493C32.5456 98.396 32.8407 97.7217 33.1357 97.0684C33.8101 95.551 34.5266 94.0548 35.2431 92.5796C38.067 86.8265 41.2281 81.263 44.7685 75.9102C46.5387 73.2338 48.3932 70.6417 50.3109 68.0918C51.7018 66.2373 49.215 69.4405 50.3741 68.0286C50.901 67.3963 51.4067 66.7431 51.9125 66.1108C52.9662 64.8464 54.0199 63.582 55.1157 62.3386C59.3305 57.5549 63.8614 53.045 68.7084 48.8935C69.8042 47.9452 70.9211 47.039 72.0381 46.1328C72.6703 45.627 74.9673 44.2783 72.3331 45.8799C73.0285 45.4585 73.6607 44.8684 74.314 44.4048C76.9061 42.5081 79.5614 40.7168 82.28 39.0098C84.9985 37.3029 87.8224 35.7013 90.6884 34.2261C92.0793 33.5096 93.4912 32.8141 94.9032 32.1398C95.5776 31.8237 96.2309 31.5076 96.9052 31.2125C97.2845 31.0439 97.685 30.8753 98.0643 30.7067C98.4225 30.5592 100.172 29.7584 98.549 30.496C96.9263 31.2336 99.1812 30.2431 99.6448 30.0745C100.425 29.7584 101.225 29.4634 102.026 29.1684C103.628 28.5783 105.25 28.0093 106.873 27.4824C110.055 26.4498 113.111 25.1643 116.314 24.216C119.517 23.2677 122.91 22.4669 126.261 21.8768C127.125 21.7293 127.989 21.6239 128.832 21.4553C129.991 21.2446 127.568 21.6028 127.631 21.6028C128.031 21.6028 128.516 21.4975 128.916 21.4553C130.623 21.2657 132.33 21.1181 134.037 21.0338C137.304 20.8442 140.57 20.8652 143.837 21.0338C145.396 21.1181 146.935 21.2446 148.494 21.4342C148.894 21.4764 149.316 21.5607 149.716 21.5818C149.843 21.5818 147.272 21.2024 148.431 21.4132C149.337 21.5818 150.243 21.6871 151.149 21.8557C154.205 22.4247 157.219 23.1623 160.19 24.0896C161.602 24.5321 162.993 25.0168 164.363 25.5436C164.763 25.6912 167.039 26.6395 165.269 25.8808C163.499 25.1222 166.175 26.3023 166.639 26.5341C169.189 27.7564 171.675 29.1262 174.057 30.6857C174.668 31.0861 175.3 31.5076 175.89 31.9501C176.29 32.2241 178.061 33.5728 176.607 32.4559C175.152 31.339 176.923 32.7298 177.26 33.0249C177.892 33.5517 178.503 34.0996 179.114 34.6686C180.105 35.5959 181.074 36.5653 182.001 37.5768C182.486 38.1037 182.971 38.6516 183.435 39.2206C185.036 41.1383 182.528 37.914 183.456 39.2206C185.099 41.5176 186.596 43.8779 187.839 46.4068C188.113 46.9758 188.345 47.5869 188.64 48.1559C187.101 45.2477 188.303 47.3551 188.598 48.2191C189.103 49.6311 189.546 51.0641 189.925 52.5182C190.262 53.8248 190.536 55.1314 190.768 56.459C191.232 59.2197 190.642 54.7731 190.789 56.5855C190.853 57.3863 190.937 58.1871 190.979 58.9879C191.084 60.6316 191.084 62.2965 191.042 63.9402C191 65.4786 190.368 67.6282 190.642 69.1033C190.642 69.1244 191.021 66.8063 190.789 67.9653C190.705 68.4079 190.642 68.8504 190.579 69.3141C190.452 70.1149 190.284 70.8946 190.136 71.6954C189.736 73.571 189.272 75.4255 188.745 77.28C188.303 78.8184 187.818 80.3568 187.249 81.853C187.122 82.1691 186.975 82.4852 186.87 82.8224C186.575 83.7497 187.46 81.4737 187.439 81.4948C187.017 81.7687 186.68 83.1175 186.448 83.6022C185.226 86.0046 183.498 88.0487 182.191 90.3879C182.233 90.3247 183.94 88.2806 182.866 89.4818C182.697 89.6714 182.528 89.8822 182.36 90.0929C181.917 90.6198 181.454 91.1466 180.99 91.6735C180.042 92.7061 179.051 93.6965 178.04 94.6449C177.07 95.551 176.059 96.394 175.047 97.237C173.719 98.3328 177.218 95.6564 175.279 97.0473C174.626 97.5109 173.972 97.9956 173.319 98.4382C171.085 99.9555 168.767 101.304 166.365 102.505C165.732 102.822 165.079 103.138 164.426 103.433C163.983 103.643 161.96 104.507 163.709 103.77C165.585 102.969 163.077 104.002 162.719 104.149C162.045 104.402 161.37 104.655 160.696 104.887C158.062 105.793 155.385 106.509 152.667 107.057C151.971 107.205 151.276 107.331 150.58 107.437C150.117 107.521 147.82 107.858 149.885 107.563C151.95 107.268 149.653 107.563 149.189 107.626C148.41 107.711 147.63 107.753 146.829 107.795C144.174 107.942 141.498 107.9 138.821 107.647C138.315 107.605 136.187 107.331 138.21 107.605C140.381 107.879 137.789 107.521 137.367 107.437C136.06 107.184 134.754 106.889 133.468 106.531C132.267 106.193 131.108 105.793 129.949 105.371C129.717 105.287 129.485 105.182 129.254 105.098C128.073 104.676 131.53 106.151 130.413 105.582C129.759 105.245 129.085 104.971 128.432 104.634C127.42 104.107 126.43 103.538 125.481 102.906C124.933 102.548 124.407 102.168 123.88 101.789C122.594 100.904 125.882 103.517 124.091 101.915C123.163 101.093 122.257 100.272 121.393 99.3654C120.993 98.9439 120.613 98.4803 120.213 98.0588C118.464 96.1411 121.351 99.7869 120.129 97.9745C119.391 96.8787 118.653 95.8039 118.021 94.6659C117.663 94.0337 117.326 93.4015 117.01 92.7482C116.883 92.4953 116.778 92.2424 116.651 92.0106C115.893 90.4722 116.778 92.116 116.946 92.7271C116.778 92.0106 116.399 91.2941 116.146 90.5776C115.977 90.0718 115.661 87.9855 115.703 89.6082C115.745 91.2309 115.703 88.7442 115.703 88.2384C115.703 87.7748 115.745 87.3112 115.766 86.8475C115.766 84.9298 115.324 88.4281 115.703 87.2269C115.956 86.4682 116.061 85.6252 116.293 84.8455C116.272 84.9298 116.694 83.5179 116.736 83.5179C116.799 83.5179 115.556 85.9203 116.504 84.0869C116.883 83.3493 117.242 82.6328 117.663 81.9162C117.895 81.5158 118.169 81.1154 118.422 80.7361C118.548 80.5464 118.675 80.3568 118.822 80.1671C119.286 79.5349 119.096 79.7878 118.253 80.9047C118.169 80.6097 121.435 77.4064 121.688 77.5118C121.878 77.5961 119.77 78.7762 121.203 77.9544C121.583 77.7436 121.962 77.4697 122.341 77.2379C122.721 77.006 123.121 76.8374 123.522 76.6056C124.87 75.847 123.184 77.1957 122.826 76.8796C122.91 76.9639 124.912 76.2685 125.018 76.2474C127.273 75.6362 123.311 76.142 125.123 76.2474C125.524 76.2685 126.008 76.2685 126.43 76.2474C127.968 76.2052 125.882 76.7532 125.608 76.0999C125.692 76.2685 128.073 76.7953 128.242 76.8585C133.426 78.7341 140.001 74.7511 141.202 69.5037C142.551 63.582 139.411 58.5453 133.848 56.5433V56.5012Z" fill="#FF48A0"/>
</mask>
<g mask="url(#mask0_41_263)">
<rect x="-39.6725" y="-5.69321" width="983.928" height="137.664" transform="rotate(15.6669 -39.6725 -5.69321)" fill="#FF48A0"/>
<rect x="-74.2046" y="126.98" width="983.928" height="137.664" transform="rotate(15.6669 -74.2046 126.98)" fill="#CD1D71"/>
<rect x="37.9788" y="-126.161" width="983.928" height="137.664" transform="rotate(15.6669 37.9788 -126.161)" fill="#FFB1D7"/>
</g>
</svg>
