<svg width="74" height="74" viewBox="0 0 74 74" fill="none" xmlns="http://www.w3.org/2000/svg">
<mask id="mask0_107_2" style="mask-type:alpha" maskUnits="userSpaceOnUse" x="14" y="2" width="46" height="70">
<path d="M37.7072 2.79003C37.4772 2.79003 37.2372 2.78003 37.0072 2.78003C36.7772 2.78003 36.5372 2.78003 36.3072 2.79003C20.3572 3.25003 10.1372 20.01 16.6272 34.57L31.3072 67.53C33.4972 72.45 40.4872 72.45 42.6872 67.53L57.3672 34.57C63.8672 20.01 53.6472 3.25003 37.7072 2.79003ZM37.0072 41.27C28.5772 41.27 21.7372 34.44 21.7372 26.01C21.7372 17.58 28.5672 10.74 37.0072 10.74C45.4472 10.74 52.2672 17.57 52.2672 26.01C52.2672 34.45 45.4372 41.27 37.0072 41.27Z" fill="white"/>
</mask>
<g mask="url(#mask0_107_2)">
<path d="M-10.854 -3.22662L103.307 28.7915L94.4117 60.5077L-19.7493 28.4896L-10.854 -3.22662Z" fill="#FF48A0"/>
<path d="M-11.4307 30.4648L89.255 58.7036L79.1366 94.7809L-21.5491 66.5421L-11.4307 30.4648Z" fill="#CD1D72"/>
<path d="M0.59668 -33.4791L95.5986 -6.83438L86.7033 24.8818L-8.2986 -1.76285L0.59668 -33.4791Z" fill="#FFB1D7"/>
</g>
</svg>
