<svg width="35" height="35" viewBox="0 0 35 35" fill="none" xmlns="http://www.w3.org/2000/svg">
<path d="M32.2778 35L20.0278 22.75C19.0556 23.5278 17.9375 24.1435 16.6736 24.5972C15.4097 25.0509 14.0648 25.2778 12.6389 25.2778C9.10648 25.2778 6.1169 24.0544 3.67014 21.6076C1.22338 19.1609 0 16.1713 0 12.6389C0 9.10648 1.22338 6.1169 3.67014 3.67014C6.1169 1.22338 9.10648 0 12.6389 0C16.1713 0 19.1609 1.22338 21.6076 3.67014C24.0544 6.1169 25.2778 9.10648 25.2778 12.6389C25.2778 14.0648 25.0509 15.4097 24.5972 16.6736C24.1435 17.9375 23.5278 19.0556 22.75 20.0278L35 32.2778L32.2778 35ZM12.6389 21.3889C15.0694 21.3889 17.1354 20.5382 18.8368 18.8368C20.5382 17.1354 21.3889 15.0694 21.3889 12.6389C21.3889 10.2083 20.5382 8.14236 18.8368 6.44097C17.1354 4.73958 15.0694 3.88889 12.6389 3.88889C10.2083 3.88889 8.14236 4.73958 6.44097 6.44097C4.73958 8.14236 3.88889 10.2083 3.88889 12.6389C3.88889 15.0694 4.73958 17.1354 6.44097 18.8368C8.14236 20.5382 10.2083 21.3889 12.6389 21.3889Z" fill="#CD1D71"/>
</svg>
