<?xml version="1.0" encoding="utf-8"?>
<!-- Generator: Adobe Illustrator 27.0.0, SVG Export Plug-In . SVG Version: 6.00 Build 0)  -->
<svg version="1.1" id="Calque_1" xmlns="http://www.w3.org/2000/svg" xmlns:xlink="http://www.w3.org/1999/xlink" x="0px" y="0px"
	 viewBox="0 0 35 35" style="enable-background:new 0 0 35 35;" xml:space="preserve">
<style type="text/css">
	.st0{fill:#CD1D71;}
</style>
<path class="st0" d="M31.4,34.1l-11-11c-1,0.8-2.1,1.4-3.4,1.8c-1.3,0.5-2.6,0.7-4,0.7c-3.5,0-6.5-1.2-9-3.7c-2.4-2.4-3.7-5.4-3.7-9
	c0-3.5,1.2-6.5,3.7-9s5.5-3.5,9-3.5s6.5,1.2,9,3.7c2.4,2.4,3.7,5.4,3.7,9c0,1.4-0.2,2.8-0.7,4c-0.5,1.3-1.1,2.4-1.8,3.4l11,11
	c0.7,0.7,0.7,1.8,0,2.5L34,34.2C33.2,34.8,32.1,34.8,31.4,34.1z M13,21.8c2.4,0,4.5-0.9,6.2-2.6c1.7-1.7,2.6-3.8,2.6-6.2
	s-0.9-4.5-2.6-6.2S15.4,4.2,13,4.2S8.5,5.1,6.8,6.8S4.2,10.6,4.2,13s0.9,4.5,2.6,6.2S10.6,21.8,13,21.8z"/>
</svg>
