<?xml version="1.0" encoding="utf-8"?>
<!-- Generator: Adobe Illustrator 27.0.0, SVG Export Plug-In . SVG Version: 6.00 Build 0)  -->
<svg version="1.1" id="Calque_1" xmlns="http://www.w3.org/2000/svg" xmlns:xlink="http://www.w3.org/1999/xlink" x="0px" y="0px"
	 viewBox="0 0 74 74" style="enable-background:new 0 0 74 74;" xml:space="preserve">
<style type="text/css">
	.st0{fill:#CD1D72;}
	.st1{fill:#FFFFFF;}
</style>
<g>
	<path class="st0" d="M58.3,14.2H15.7c-0.7,0-1.2,0.5-1.2,1.2c0,0.7,0.5,1.2,1.2,1.2H17v40.7c0,4.7,3.8,8.5,8.5,8.5h23
		c4.7,0,8.5-3.8,8.5-8.5V16.7h1.3c0.7,0,1.2-0.5,1.2-1.2C59.5,14.8,59,14.2,58.3,14.2z"/>
	<path class="st0" d="M29.1,13.5c0-0.2,0.2-0.4,0.5-0.4h14.7c0.3,0,0.5,0.2,0.5,0.4v0.7h5v-0.7c0-2.6-2.5-4.7-5.5-4.7H29.6
		c-3.1,0-5.5,2.1-5.5,4.7v0.7h5V13.5z"/>
</g>
<polygon class="st1" points="44.8,33.9 42,31.1 37,36.1 32,31.1 29.2,33.9 34.2,38.9 29.2,43.9 32,46.7 37,41.7 42,46.7 44.8,43.9 
	39.8,38.9 "/>
</svg>
