<svg width="71" height="71" viewBox="0 0 71 71" fill="none" xmlns="http://www.w3.org/2000/svg">
<mask id="mask0_47_51" style="mask-type:alpha" maskUnits="userSpaceOnUse" x="0" y="0" width="71" height="71">
<path fill-rule="evenodd" clip-rule="evenodd" d="M35.3828 7.34891C27.9 7.34891 21.7921 13.5344 21.7921 21.217C21.7921 28.8997 27.9 35.0851 35.3828 35.0851C42.8656 35.0851 48.9736 28.8997 48.9736 21.217C48.9736 13.5344 42.8656 7.34891 35.3828 7.34891ZM14.5281 21.217C14.5281 9.52271 23.8419 0 35.3828 0C46.9238 0 56.2376 9.52271 56.2376 21.217C56.2376 32.9113 46.9238 42.4341 35.3828 42.4341C23.8419 42.4341 14.5281 32.9113 14.5281 21.217Z" fill="black"/>
<path fill-rule="evenodd" clip-rule="evenodd" d="M35.5 42.4341C19.9057 42.4341 7.26403 55.2235 7.26403 71H0C0 51.1648 15.8939 35.0851 35.5 35.0851C55.1061 35.0851 71 51.1648 71 71H63.736C63.736 55.2235 51.0943 42.4341 35.5 42.4341Z" fill="black"/>
</mask>
<g mask="url(#mask0_47_51)">
<path d="M-10.854 -2.22662L103.307 29.7915L94.4117 61.5077L-19.7493 29.4896L-10.854 -2.22662Z" fill="#FF48A0"/>
<path d="M-11.4307 31.4648L89.255 59.7036L79.1366 95.7809L-21.5491 67.5421L-11.4307 31.4648Z" fill="#CD1D72"/>
<path d="M0.59668 -32.4791L95.5986 -5.83438L86.7033 25.8818L-8.2986 -0.76285L0.59668 -32.4791Z" fill="#FFB1D7"/>
</g>
</svg>
