<svg width="74" height="74" viewBox="0 0 74 74" fill="none" xmlns="http://www.w3.org/2000/svg">
<mask id="mask0_103_79" style="mask-type:alpha" maskUnits="userSpaceOnUse" x="0" y="0" width="74" height="74">
<path fill-rule="evenodd" clip-rule="evenodd" d="M36.7091 8.00514C29.6199 8.00514 23.873 13.9325 23.873 21.2442C23.873 28.5559 29.6199 34.4833 36.7091 34.4833C43.7983 34.4833 49.5452 28.5559 49.5452 21.2442C49.5452 13.9325 43.7983 8.00514 36.7091 8.00514ZM16.5963 21.2442C16.5963 9.7875 25.6011 0.5 36.7091 0.5C47.8171 0.5 56.822 9.7875 56.822 21.2442C56.822 27.9896 53.7004 33.983 48.8659 37.7717C62.8692 42.3754 73.209 54.7179 73.209 69.7474C73.209 71.8199 71.58 73.5 69.5706 73.5C67.5612 73.5 65.9323 71.8199 65.9323 69.7474C65.9323 55.5589 53.2543 43.3393 36.709 43.3393C20.1636 43.3393 7.4857 55.5589 7.4857 69.7474C7.4857 71.8199 5.85675 73.5 3.84734 73.5C1.83793 73.5 0.208984 71.8199 0.208984 69.7474C0.208984 54.7178 10.5489 42.3753 24.5522 37.7716C19.7178 33.983 16.5963 27.9896 16.5963 21.2442Z" fill="#1D1D1B"/>
</mask>
<g mask="url(#mask0_103_79)">
<path d="M-10.854 -2.22662L103.307 29.7915L94.4117 61.5077L-19.7493 29.4896L-10.854 -2.22662Z" fill="#FF48A0"/>
<path d="M-11.4307 31.4648L89.255 59.7036L79.1366 95.7809L-21.5491 67.5421L-11.4307 31.4648Z" fill="#CD1D72"/>
<path d="M0.59668 -32.4791L95.5986 -5.83438L86.7033 25.8818L-8.2986 -0.76285L0.59668 -32.4791Z" fill="#FFB1D7"/>
</g>
</svg> 